<svg width="32" height="32" viewBox="0 0 32 32" fill="none" xmlns="http://www.w3.org/2000/svg">
<path d="M17.2443 31.1851L21.3136 25.6998C21.5198 25.4265 21.4102 25.2041 21.0662 25.2041H19.3767C19.2743 25.2041 19.1917 25.1215 19.1917 25.0191V21.3882C19.1917 21.0449 18.9138 20.7661 18.57 20.7661H15.1686C14.8245 20.7661 14.5459 21.0449 14.5459 21.3882V25.0194C14.5459 25.1217 14.4633 25.2044 14.3619 25.2044H12.6726C12.3281 25.2044 12.2176 25.4265 12.4247 25.7001L16.494 31.1853C16.7009 31.4586 17.0378 31.4586 17.2443 31.1851L17.2443 31.1851Z" fill="#1A4860"/>
<path d="M22.4099 0.846185C22.3135 0.749758 22.1287 0.670471 21.9916 0.670471H7.3319C7.05642 0.670471 6.83428 0.893807 6.83595 1.16809V10.3116C6.83595 10.4494 6.94761 10.5611 7.08523 10.5611H7.86597C8.00216 10.5611 8.11406 10.4494 8.11406 10.3116V2.10188C8.11406 1.9995 8.1974 1.9176 8.29882 1.9176H20.9592C21.0616 1.9176 21.1433 1.99951 21.1433 2.10188L21.1454 5.87045C21.1428 6.14592 21.3642 6.36807 21.6392 6.36807H25.4414C25.5438 6.36807 25.6266 6.45069 25.6266 6.55235V26.8617C25.6266 26.9634 25.5438 27.046 25.4414 27.046L21.4123 27.0422C21.3099 27.0422 21.1778 27.1081 21.1185 27.1912L20.4218 28.1336C20.3613 28.2162 20.3956 28.2831 20.4968 28.2831L26.3671 28.2924C26.6416 28.2924 26.8647 28.0703 26.8657 27.7948L26.8759 5.55021C26.8759 5.4133 26.7978 5.22259 26.7002 5.12592L22.4099 0.846185Z" fill="#1A4860"/>
<path d="M7.86496 20.7292H7.08422C6.94661 20.7292 6.83494 20.8409 6.83398 20.9785L6.83494 27.7961C6.83398 28.0715 7.05541 28.2937 7.33089 28.2937L13.2107 28.2844C13.313 28.2844 13.3459 28.2175 13.2857 28.1349L12.589 27.1925C12.5292 27.1096 12.3968 27.0434 12.2959 27.0434L8.29777 27.0472C8.19634 27.0472 8.11301 26.9646 8.11301 26.863L8.11325 20.9784C8.11301 20.8408 8.00111 20.7294 7.86492 20.7294L7.86496 20.7292Z" fill="#1A4860"/>
<path d="M9.41434 15.1686C9.49791 15.1379 9.55934 15.0924 9.60648 15.031C9.65029 14.9717 9.67339 14.9026 9.67339 14.8191C9.67339 14.7146 9.64172 14.6365 9.5822 14.575C9.51529 14.5065 9.43244 14.4672 9.32648 14.4493C9.2572 14.4381 9.08625 14.4241 8.67222 14.4241H8.44531V15.2205H8.73579C9.21127 15.2205 9.36866 15.1826 9.41437 15.1686L9.41434 15.1686Z" fill="#1A4860"/>
<path d="M13.5222 16.8479C13.8656 16.8479 14.1325 16.7486 14.3148 16.5512C14.5139 16.3355 14.6156 16.005 14.6156 15.5686C14.6172 15.1779 14.5217 14.8831 14.3298 14.6893C14.1584 14.5171 13.9132 14.4297 13.6003 14.4297C13.5313 14.4297 13.4746 14.4328 13.4258 14.4367V16.8476C13.4539 16.8483 13.4817 16.8483 13.506 16.8483L13.5222 16.8481L13.5222 16.8479Z" fill="#1A4860"/>
<path d="M5.68833 19.6778H21.7383C22.0131 19.6778 22.2369 19.458 22.2369 19.1802L22.2371 12.1122C22.2371 11.8336 22.0133 11.6136 21.7386 11.6136L5.6776 11.6133C5.40117 11.6133 5.17998 11.8338 5.18165 12.1119L5.1857 19.18C5.18713 19.458 5.41141 19.6778 5.68784 19.6778H5.68833ZM16.9548 13.2443H20.4888V14.4697H18.4017V15.1028H20.2641V16.2129H18.4017V18.0457H16.955V13.2443H16.9548ZM12.035 13.3443L12.2269 13.3095C12.5702 13.2502 13.0419 13.2167 13.5062 13.2167C14.2967 13.2167 14.8431 13.3757 15.2757 13.731C15.7695 14.1302 16.0312 14.7543 16.0312 15.5359C16.0312 16.564 15.6321 17.1464 15.2984 17.4557C14.8443 17.8659 14.1765 18.0745 13.3124 18.0745C12.9229 18.0745 12.5417 18.0514 12.2348 18.0076L12.0357 17.9795V13.3442L12.035 13.3443ZM6.93524 13.2443H8.78929C9.40619 13.2443 9.80335 13.2702 10.0055 13.3188C10.329 13.3943 10.6045 13.5643 10.8233 13.8224C11.0421 14.079 11.1507 14.4102 11.1507 14.8048C11.1507 15.1079 11.0871 15.3714 10.9619 15.5864C10.8374 15.7983 10.6759 15.9705 10.4788 16.0924C10.289 16.2131 10.0907 16.2924 9.89071 16.334C9.63952 16.3797 9.2938 16.3993 8.83666 16.3993H8.44523V18.046L6.93526 18.0455L6.93524 13.2443Z" fill="#1A4860"/>
</svg>
