<svg width="32" height="32" viewBox="0 0 32 32" fill="none" xmlns="http://www.w3.org/2000/svg">
<path d="M21.5146 0.399841V6.33298H27.4484L21.5146 0.399841Z" fill="#1A4860"/>
<path d="M20.9144 7.59989C20.5811 7.59989 20.2476 7.33314 20.2476 6.93314L20.2479 0H4.781C4.44774 0 4.11426 0.266743 4.11426 0.666743V31.333C4.11426 31.6663 4.381 31.9998 4.781 31.9998H27.181C27.5143 31.9998 27.8477 31.733 27.8477 31.333V7.59989H20.9144ZM26.5144 30.733H5.44809V1.26674H18.9812V6.93349C18.9812 8.00023 19.848 8.86674 20.9145 8.86674H26.5812V30.733H26.5144Z" fill="#1A4860"/>
<path d="M9.91454 22.5999C9.91454 22.1999 9.6478 21.9332 9.2478 21.9332C8.8478 21.9332 8.58105 22.1999 8.58105 22.5999V26.3999C8.58105 26.7999 8.8478 27.0667 9.2478 27.0667H22.7147C23.1147 27.0667 23.3814 26.7999 23.3814 26.3999V22.5999C23.3814 22.1999 23.1147 21.9332 22.7147 21.9332C22.3147 21.9332 22.0479 22.1999 22.0479 22.5999V25.7332H9.91477L9.91454 22.5999Z" fill="#1A4860"/>
<path d="M15.1817 23.5999C15.5149 24.1999 16.3817 24.1999 16.7149 23.5999L19.9149 18.3999C20.3149 17.7999 19.8482 16.9999 19.1149 16.9999H18.1149V10.8667C18.1149 10.4667 17.8482 10.2 17.4482 10.2H14.3814C13.9814 10.2 13.7147 10.4667 13.7147 10.8667V16.9999H12.7147C11.9814 16.9999 11.5814 17.7999 11.9147 18.3999L15.1817 23.5999Z" fill="#1A4860"/>
</svg>
