<svg width="32" height="32" viewBox="0 0 32 32" fill="none" xmlns="http://www.w3.org/2000/svg">
<path d="M21.2429 25.5555H19.483C19.3763 25.5555 19.2903 25.4695 19.2903 25.3638V21.5803C19.2903 21.2227 19.0006 20.9323 18.6427 20.9323H15.1006C14.7422 20.9323 14.4528 21.2227 14.4528 21.5803V25.3638C14.4528 25.4695 14.3664 25.5555 14.2608 25.5555H12.5011C12.1435 25.5555 12.0279 25.7869 12.2429 26.0721L16.4805 31.7852C16.6968 32.0714 17.047 32.0714 17.2627 31.7852L21.4996 26.0721C21.7156 25.7869 21.6003 25.5555 21.2429 25.5555H21.2429Z" fill="#1A4860"/>
<path d="M22.6409 0.183035C22.5399 0.0820952 22.3477 0 22.2049 0H6.9363C6.64935 0 6.41795 0.232641 6.41993 0.518355V10.0428C6.41993 10.1862 6.53625 10.3025 6.6796 10.3025H7.49135C7.63495 10.3025 7.75127 10.1862 7.75127 10.0428V1.49105C7.75127 1.3854 7.83734 1.29909 7.94299 1.29909H21.129C21.2347 1.29909 21.3207 1.3854 21.3207 1.49105L21.323 5.41664C21.3197 5.7031 21.5509 5.935 21.8364 5.935H25.7979C25.9036 5.935 25.9899 6.02106 25.9899 6.12771V27.282C25.9899 27.3876 25.9036 27.4737 25.7979 27.4737L21.6003 27.4712C21.4944 27.4702 21.3567 27.5399 21.2942 27.6252L20.5693 28.6079C20.5063 28.6932 20.5423 28.7632 20.6479 28.7632L26.7618 28.7728C27.0477 28.7728 27.2801 28.5414 27.2811 28.2555L27.294 5.08406C27.295 4.9407 27.2126 4.74303 27.1117 4.64134L22.6409 0.183035Z" fill="#1A4860"/>
<path d="M7.49233 20.8946H6.68059C6.53724 20.8946 6.42092 21.0097 6.41992 21.1535L6.42091 28.2564C6.41992 28.5423 6.65058 28.7737 6.93728 28.7737L13.061 28.7641C13.1677 28.7641 13.2022 28.6944 13.1397 28.6088L12.415 27.6261C12.3517 27.5411 12.2143 27.4711 12.1089 27.4721L7.9442 27.4744C7.83855 27.4744 7.75249 27.3883 7.75249 27.2826V21.1532C7.75249 21.0098 7.63592 20.8947 7.49232 20.8947L7.49233 20.8946Z" fill="#1A4860"/>
<path d="M6.95936 16.7099C7.27756 16.7099 7.52459 16.6166 7.69301 16.4351C7.87654 16.2364 7.97029 15.9313 7.97029 15.5276C7.97203 15.166 7.88275 14.8929 7.70641 14.7148C7.54793 14.5558 7.32099 14.4752 7.0318 14.4752C6.96782 14.4752 6.91598 14.4775 6.87109 14.4802V16.7091C6.89738 16.7101 6.92268 16.7101 6.94476 16.7101H6.95939L6.95936 16.7099Z" fill="#1A4860"/>
<path d="M5.22223 19.7981H21.9422C22.2292 19.7981 22.4628 19.5694 22.4628 19.2797L22.4626 11.9172C22.4626 11.6277 22.2289 11.3978 21.942 11.3978L5.21881 11.3976C4.93037 11.3976 4.69996 11.6272 4.70195 11.9169L4.69922 19.2795C4.70046 19.5694 4.93434 19.7981 5.22253 19.7981H5.22223ZM17.5245 13.4501H18.9692L19.5021 14.3809L20.0255 13.4501H21.4615L20.2305 15.5412L21.5755 17.747H20.1013L19.4897 16.7079L18.8764 17.747H17.4101L18.7519 15.5152L17.5245 13.4501ZM16.1606 13.3542C16.6306 13.3542 16.9833 13.4591 17.1572 13.5568L17.2958 13.6344L17.0331 14.749L16.7988 14.6424C16.6135 14.5581 16.4119 14.5154 16.1986 14.5154C15.5999 14.5154 15.2561 14.9125 15.2561 15.6074C15.2561 16.2904 15.6023 16.6823 16.2047 16.6823C16.4297 16.6823 16.676 16.6258 16.8017 16.571L17.0477 16.4643L17.2454 17.5744L17.1117 17.6468C16.9386 17.7426 16.5763 17.843 16.081 17.843C14.7995 17.843 13.9721 16.9864 13.9721 15.6594C13.9719 14.2802 14.8513 13.3541 16.1606 13.3541L16.1606 13.3542ZM9.85061 14.5362C9.94164 14.3142 10.0674 14.1121 10.2254 13.9353C10.3863 13.7542 10.5684 13.6173 10.7643 13.5283C11.0153 13.4132 11.308 13.3541 11.6308 13.3541C12.2253 13.3541 12.7085 13.5598 13.0691 13.9658C13.4225 14.3628 13.602 14.9144 13.602 15.6034C13.602 16.2874 13.4235 16.835 13.0733 17.2321C12.7144 17.6374 12.2328 17.843 11.6408 17.843C11.0431 17.843 10.5584 17.6386 10.2001 17.2351C9.84913 16.84 9.67106 16.2971 9.67106 15.622C9.67031 15.1972 9.73108 14.8318 9.85062 14.5362L9.85061 14.5362ZM5.58572 13.4714L5.76281 13.4394C6.08002 13.3844 6.51576 13.3541 6.9451 13.3541C7.67672 13.3541 8.18192 13.5007 8.58129 13.8288C9.03739 14.1971 9.2797 14.775 9.2797 15.4977C9.2797 16.4474 8.9109 16.9863 8.6016 17.2708C8.18196 17.6505 7.5644 17.8425 6.7663 17.8425C6.40569 17.8425 6.05399 17.8219 5.77005 17.7812L5.58578 17.7539L5.58572 13.4714Z" fill="#1A4860"/>
<path d="M11.6386 16.7079C11.8583 16.7079 12.0263 16.6276 12.1674 16.4544C12.3172 16.2717 12.3923 15.9795 12.3923 15.5852C12.3923 15.1956 12.3199 14.9096 12.1756 14.7333C12.0387 14.5666 11.8683 14.4887 11.6386 14.4887C11.4089 14.4887 11.2371 14.5673 11.0977 14.737C10.9516 14.915 10.877 15.2045 10.877 15.5956C10.877 15.9793 10.9538 16.2669 11.1049 16.451C11.249 16.6268 11.4186 16.7079 11.6386 16.7079L11.6386 16.7079Z" fill="#1A4860"/>
</svg>
