<svg width="32" height="32" viewBox="0 0 32 32" fill="none" xmlns="http://www.w3.org/2000/svg">
<path fill-rule="evenodd" clip-rule="evenodd" d="M9.85339 3.48255H26.4831V16.5283C26.2795 16.5053 26.0733 16.4952 25.8646 16.4952C25.6583 16.4952 25.4523 16.5055 25.2512 16.5258V4.71439H9.85351L9.85339 3.48255ZM26.4831 28.5254V32H5.10025V13.3206C5.5152 13.3154 5.93014 13.2621 6.33237 13.1576V30.7679H25.2507V28.5253C25.4518 28.5456 25.658 28.5583 25.864 28.5583C26.0727 28.5583 26.279 28.5456 26.4825 28.5253L26.4831 28.5254ZM9.11225 1.84827V8.33684C9.11225 10.2739 8.04819 11.5163 6.68637 12.0634C6.16449 12.2748 5.60197 12.379 5.04197 12.379C4.4846 12.379 3.92185 12.2746 3.40002 12.0634C2.03551 11.5161 0.97168 10.2739 0.97168 8.33684V2.99621C0.97168 1.56318 1.76339 0.639069 2.77637 0.231697C3.16074 0.0763371 3.57568 0 3.98797 0C4.39779 0 4.81277 0.0763371 5.19957 0.231697C6.21271 0.639063 7.00425 1.56295 7.00425 2.99621V7.94735C7.00425 8.81033 6.52322 9.36764 5.90717 9.61478C5.67815 9.70653 5.43105 9.75474 5.18688 9.75474C4.94246 9.75474 4.69558 9.7063 4.46659 9.61478C3.85054 9.36791 3.36951 8.81033 3.36951 7.94735V3.04713H4.52265V7.94735C4.52265 8.26566 4.6856 8.4641 4.8943 8.54804C4.98337 8.58375 5.0827 8.60139 5.18694 8.60139C5.2914 8.60139 5.39051 8.58353 5.47957 8.54804C5.68827 8.46411 5.85122 8.26545 5.85122 7.94735V2.99621C5.85122 2.10781 5.37778 1.54261 4.77197 1.29844C4.52755 1.20179 4.26036 1.1509 3.98802 1.1509C3.71569 1.1509 3.44583 1.20179 3.20408 1.29844C2.59825 1.54286 2.12214 2.10781 2.12214 2.99621V8.33684C2.12214 9.72678 2.87059 10.6152 3.82774 10.9996C4.20698 11.1523 4.62191 11.2286 5.04202 11.2286C5.46211 11.2286 5.87951 11.1523 6.25877 10.9996C7.21345 10.6152 7.96168 9.72684 7.96168 8.33684V1.84827H9.11225ZM25.8643 17.338C28.7305 17.338 31.052 19.6621 31.052 22.5257C31.052 25.392 28.7305 27.7134 25.8643 27.7134C23.0004 27.7134 20.6765 25.392 20.6765 22.5257C20.6765 19.6619 23.0006 17.338 25.8643 17.338ZM25.1921 19.5424H26.5361V21.8538H28.8475V23.1978H26.5361V25.5116H25.1921V23.1978H22.8808V21.8538H25.1921V19.5424ZM7.88471 17.2005H23.0001C22.5216 17.4601 22.0812 17.7808 21.6917 18.1525H7.88482L7.88471 17.2005ZM7.88471 26.9496H21.743C22.1477 27.3264 22.6008 27.6472 23.0948 27.9016H7.88505V26.9496H7.88471ZM10.0459 7.45078H23.7001V8.40278H10.0459V7.45078ZM10.0459 9.88941H23.7001V10.839H10.0459V9.88941ZM10.0459 12.3256H23.7001V13.2776H10.0459V12.3256ZM7.88471 14.7642H23.7001V15.7138H7.88471V14.7642ZM7.88471 24.5134H20.1516C20.2688 24.8444 20.4112 25.1624 20.5792 25.4629H7.88439L7.88471 24.5134ZM7.88471 22.0747H19.8361C19.8234 22.2249 19.8183 22.3752 19.8183 22.5254C19.8183 22.6959 19.8259 22.8613 19.8386 23.027H7.88488L7.88471 22.0747ZM7.88471 19.6386H20.551C20.3856 19.9415 20.2456 20.2571 20.1336 20.5881H7.88444L7.88471 19.6386Z" fill="#1A4860"/>
</svg>
