<svg width="24" height="22" viewBox="0 0 24 22" fill="none" xmlns="http://www.w3.org/2000/svg">
<path d="M24 4.59999L10.4 4.59999M10.4 4.59999C10.4 2.83268 8.96731 1.39999 7.2 1.39999C5.43269 1.39999 4 2.83268 4 4.59999M10.4 4.59999C10.4 6.3673 8.96731 7.79999 7.2 7.79999C5.43269 7.79999 4 6.3673 4 4.59999M4 4.59999L0 4.59999M24 17.4L20 17.4M20 17.4C20 15.6327 18.5673 14.2 16.8 14.2C15.0327 14.2 13.6 15.6327 13.6 17.4M20 17.4C20 19.1673 18.5673 20.6 16.8 20.6C15.0327 20.6 13.6 19.1673 13.6 17.4M13.6 17.4L2.03434e-07 17.4" stroke="#1A4860" stroke-width="2"/>
</svg>
