<svg width="126" height="73" viewBox="0 0 126 73" fill="none" xmlns="http://www.w3.org/2000/svg">
<path d="M38.5 61.5389L37.2156 62.3137L37.6531 63.0389L38.5 63.0389L38.5 61.5389ZM125.561 62.6C126.146 62.0142 126.146 61.0644 125.561 60.4786L116.015 50.9327C115.429 50.3469 114.479 50.3469 113.893 50.9326C113.308 51.5184 113.308 52.4682 113.893 53.054L122.379 61.5393L113.893 70.0245C113.308 70.6103 113.308 71.5601 113.893 72.1459C114.479 72.7316 115.429 72.7316 116.015 72.1459L125.561 62.6ZM0.715618 1.81374L37.2156 62.3137L39.7843 60.764L3.28434 0.264011L0.715618 1.81374ZM38.5 63.0389L124.5 63.0393L124.5 60.0393L38.5 60.0389L38.5 63.0389Z" fill="#00A775"/>
</svg>
