<svg width="126" height="74" viewBox="0 0 126 74" fill="none" xmlns="http://www.w3.org/2000/svg">
<path d="M38.5 12.0393L37.2157 11.2644L37.6532 10.5393L38.5 10.5393L38.5 12.0393ZM125.561 10.9782C126.147 11.5639 126.147 12.5137 125.561 13.0995L116.015 22.6455C115.429 23.2313 114.479 23.2313 113.894 22.6455C113.308 22.0597 113.308 21.1099 113.894 20.5242L122.379 12.0388L113.893 3.55359C113.308 2.96781 113.308 2.01806 113.893 1.43227C114.479 0.846482 115.429 0.846478 116.015 1.43226L125.561 10.9782ZM0.715679 71.7644L37.2157 11.2644L39.7844 12.8141L3.2844 73.3141L0.715679 71.7644ZM38.5 10.5393L124.5 10.5388L124.5 13.5388L38.5 13.5393L38.5 10.5393Z" fill="#53B7E8"/>
</svg>
