<svg width="161" height="88" viewBox="0 0 161 88" fill="none" xmlns="http://www.w3.org/2000/svg">
<path d="M104.103 42.625V38.5C104.103 38.1353 103.958 37.7856 103.7 37.5277C103.442 37.2699 103.092 37.125 102.728 37.125C102.363 37.125 102.013 36.9801 101.755 36.7223C101.497 36.4644 101.353 36.1147 101.353 35.75V30.25C101.353 28.062 100.483 25.9635 98.9362 24.4164C97.389 22.8692 95.2906 22 93.1025 22C90.9145 22 88.8161 22.8692 87.2689 24.4164C85.7217 25.9635 84.8525 28.062 84.8525 30.25V35.75C84.8525 36.1147 84.7077 36.4644 84.4498 36.7223C84.1919 36.9801 83.8422 37.125 83.4775 37.125C83.1129 37.125 82.7631 37.2699 82.5053 37.5277C82.2474 37.7856 82.1025 38.1353 82.1025 38.5V42.625C82.1025 42.9897 82.2474 43.3394 82.5053 43.5973C82.7631 43.8551 83.1129 44 83.4775 44H102.728C103.092 44 103.442 43.8551 103.7 43.5973C103.958 43.3394 104.103 42.9897 104.103 42.625ZM101.353 41.25H84.8525V39.6399C85.6562 39.3544 86.352 38.8274 86.8443 38.131C87.3366 37.4345 87.6015 36.6029 87.6025 35.75V30.25C87.6025 28.7913 88.182 27.3924 89.2135 26.3609C90.2449 25.3295 91.6438 24.75 93.1025 24.75C94.5612 24.75 95.9602 25.3295 96.9916 26.3609C98.0231 27.3924 98.6025 28.7913 98.6025 30.25V35.75C98.6036 36.6029 98.8684 37.4345 99.3608 38.131C99.8531 38.8274 100.549 39.3544 101.353 39.6399V41.25Z" fill="#1A4860"/>
<path d="M148.103 33C145.79 33.0028 143.556 33.838 141.809 35.3529C140.061 36.8679 138.918 38.9612 138.588 41.25H109.603C110.915 38.1098 111.304 34.66 110.723 31.3063C110.143 27.9526 108.616 24.8344 106.324 22.3183C104.032 19.8022 101.069 17.9928 97.7841 17.1029C94.4989 16.213 91.0279 16.2795 87.7792 17.2947C84.5305 18.3098 81.6391 20.2313 79.4451 22.8334C77.251 25.4354 75.8454 28.6098 75.3936 31.9833C74.9418 35.3568 75.4625 38.7892 76.8946 41.8769C78.3266 44.9645 80.6104 47.5792 83.4775 49.4134V81.125C83.4775 81.4897 83.6224 81.8395 83.8803 82.0973C84.1381 82.3552 84.4879 82.5 84.8525 82.5H148.103C148.467 82.5 148.817 82.3552 149.075 82.0973C149.333 81.8395 149.478 81.4897 149.478 81.125V52.14C151.87 51.7756 154.038 50.523 155.549 48.6317C157.06 46.7404 157.802 44.3494 157.629 41.9351C157.455 39.5208 156.378 37.2605 154.613 35.6045C152.848 33.9486 150.523 33.0187 148.103 33ZM138.588 44C138.734 45.0188 139.044 46.0073 139.505 46.9274L116.478 62.9503L99.4138 51.0785C103.006 49.714 106.065 47.2329 108.141 44H138.588ZM77.9775 34.375C77.9775 31.3836 78.8646 28.4593 80.5266 25.9721C82.1885 23.4848 84.5507 21.5461 87.3144 20.4014C90.0782 19.2566 93.1193 18.9571 96.0533 19.5407C98.9872 20.1243 101.682 21.5648 103.798 23.6801C105.913 25.7953 107.353 28.4903 107.937 31.4243C108.521 34.3583 108.221 37.3994 107.076 40.1631C105.931 42.9269 103.993 45.2891 101.506 46.951C99.0182 48.613 96.094 49.5 93.1025 49.5C89.0926 49.4953 85.2482 47.9003 82.4128 45.0648C79.5773 42.2294 77.9823 38.385 77.9775 34.375V34.375ZM86.2275 50.875C89.2867 52.1723 92.6537 52.5655 95.9295 52.008L110.044 61.8283L86.2275 78.485V50.875ZM89.2168 79.75L112.454 63.4975L115.698 65.7539C115.928 65.9142 116.202 66.0001 116.483 66.0001C116.764 66.0001 117.038 65.9142 117.268 65.7539L120.51 63.4975L143.738 79.75H89.2168ZM146.728 78.485L122.911 61.8242L141.078 49.1838C142.569 50.7841 144.562 51.827 146.728 52.14V78.485ZM148.103 49.5C146.743 49.5 145.414 49.0968 144.283 48.3414C143.152 47.586 142.271 46.5122 141.751 45.256C141.231 43.9998 141.094 42.6174 141.36 41.2838C141.625 39.9502 142.28 38.7252 143.241 37.7637C144.203 36.8022 145.428 36.1474 146.761 35.8822C148.095 35.6169 149.477 35.753 150.733 36.2734C151.99 36.7937 153.063 37.6749 153.819 38.8055C154.574 39.9361 154.978 41.2653 154.978 42.625C154.975 44.4477 154.25 46.1952 152.961 47.484C151.673 48.7728 149.925 49.4979 148.103 49.5V49.5Z" fill="#1A4860"/>
<path d="M148.826 38.7049C148.626 38.5816 148.399 38.5113 148.165 38.5007C147.931 38.4901 147.698 38.5396 147.488 38.6444L144.738 40.0194L145.967 42.4806L146.728 42.0998V46.75H149.478V39.875C149.478 39.6406 149.418 39.41 149.304 39.2052C149.19 39.0004 149.025 38.8282 148.826 38.7049Z" fill="#1A4860"/>
<path d="M108.228 11V13.75C108.564 13.75 116.478 13.86 116.478 23.375H119.228C119.228 11.1375 108.338 11 108.228 11Z" fill="#1A4860"/>
<path d="M108.168 16.5L108.287 19.25C108.891 19.2769 109.466 19.521 109.905 19.9375C110.304 20.41 110.605 20.9575 110.789 21.5479C110.973 22.1382 111.037 22.7595 110.978 23.375H113.728C113.797 22.3871 113.662 21.3955 113.33 20.4622C112.999 19.5289 112.479 18.6739 111.803 17.9506C110.824 17.0159 109.522 16.496 108.168 16.5V16.5Z" fill="#1A4860"/>
<path d="M124.728 23.375C124.728 17.875 123.135 13.486 119.993 10.351C116.789 7.36146 112.608 5.63758 108.228 5.5V8.25C111.878 8.38603 115.361 9.82103 118.048 12.2966C120.656 14.8981 121.978 18.6244 121.978 23.375H124.728Z" fill="#1A4860"/>
<path d="M102.728 11H99.9775V13.75H102.728V11Z" fill="#1A4860"/>
<path d="M119.228 27.5H116.478V30.25H119.228V27.5Z" fill="#1A4860"/>
<path d="M78.9497 18.8471C82.014 15.8322 86.0623 14.0226 90.3525 13.75V11C85.3267 11.2497 80.5716 13.3527 77.0054 16.9029L78.9497 18.8471Z" fill="#1A4860"/>
<path d="M53.834 21.2207C53.834 26.9755 52.2318 31.5713 49.0274 35.0082C45.823 38.3651 41.497 40.6031 36.0495 41.7221V42.2016C42.939 43.0009 48.0661 45.1589 51.4307 48.6757C54.7953 52.1925 56.4776 56.7884 56.4776 62.4632C56.4776 67.4187 55.316 71.8547 52.9928 75.7711C50.6696 79.6076 47.0647 82.6049 42.178 84.7629C37.3714 86.921 31.1628 88 23.5524 88C19.0662 88 14.9005 87.6403 11.0552 86.921C7.20991 86.2816 3.52484 85.0826 0 83.3242V73.4932C3.60495 75.2516 7.49029 76.6503 11.656 77.6894C15.8217 78.6485 19.8272 79.1281 23.6725 79.1281C31.3631 79.1281 36.8907 77.6494 40.2553 74.6921C43.7001 71.6548 45.4224 67.4986 45.4224 62.2234C45.4224 56.8683 43.2995 53.0318 39.0537 50.7139C34.8879 48.3161 28.9999 47.1172 21.3894 47.1172H13.098V38.1253H21.5096C28.5592 38.1253 33.8866 36.6467 37.4915 33.6894C41.1766 30.7321 43.0191 26.8156 43.0191 21.9401C43.0191 17.7838 41.6172 14.5867 38.8133 12.3488C36.0095 10.0309 32.2043 8.87193 27.3976 8.87193C22.7513 8.87193 18.7858 9.55132 15.5013 10.9101C12.2168 12.2688 8.97233 13.9873 5.76793 16.0654L0.480661 8.87193C3.52484 6.47412 7.29002 4.39601 11.7762 2.6376C16.3425 0.879202 21.5096 0 27.2775 0C36.2498 0 42.899 1.99818 47.2249 5.99455C51.631 9.99092 53.834 15.0663 53.834 21.2207Z" fill="#1A4860"/>
</svg>
