<svg width="162" height="88" viewBox="0 0 162 88" fill="none" xmlns="http://www.w3.org/2000/svg">
<path d="M154.812 55L151.879 52.8C150.225 51.5584 148.173 50.875 146.104 50.875H143.325V46.75C143.325 42.9591 140.241 39.875 136.45 39.875H104.825V34.375H155.7C157.974 34.375 159.825 32.5243 159.825 30.25V5.5C159.825 3.22575 157.974 1.375 155.7 1.375H78.7C76.4258 1.375 74.575 3.22575 74.575 5.5V30.25C74.575 32.5243 76.4258 34.375 78.7 34.375H94.3503L91.6003 39.875H81.45C77.6591 39.875 74.575 42.9591 74.575 46.75V74.25C74.575 78.0409 77.6591 81.125 81.45 81.125H126.976C126.862 81.7396 126.796 82.3721 126.796 83.0225C126.795 83.9836 127.169 84.8884 127.849 85.569C128.529 86.2496 129.432 86.625 130.396 86.625C130.95 86.625 131.507 86.4944 132.007 86.2455L135.211 84.6422C136.215 84.1404 137.338 83.875 138.462 83.875H144.11C145.586 83.875 147.066 83.5285 148.391 82.8713L154.674 79.75H159.792L159.857 55H154.812ZM157.075 5.5V30.25C157.075 31.0076 156.459 31.625 155.7 31.625H129.575V4.125H155.7C156.459 4.125 157.075 4.74238 157.075 5.5ZM78.7 31.625C77.941 31.625 77.325 31.0076 77.325 30.25V5.5C77.325 4.74238 77.941 4.125 78.7 4.125H126.825V31.625H104.825V30.0493C104.825 27.885 103.065 26.125 100.901 26.125C99.4061 26.125 98.0614 26.9555 97.3904 28.2947L95.7253 31.625H78.7ZM81.45 78.375C79.1758 78.375 77.325 76.5243 77.325 74.25V46.75C77.325 44.4757 79.1758 42.625 81.45 42.625H93.2998L99.8503 29.5254C100.05 29.1239 100.453 28.875 100.901 28.875C101.547 28.875 102.075 29.4016 102.075 30.0493V42.625H136.45C138.724 42.625 140.575 44.4757 140.575 46.75V50.875H130.979C128.705 50.875 126.854 52.7257 126.854 55C126.854 55.5431 126.965 56.0588 127.156 56.5345C125.403 57.0103 124.104 58.5984 124.104 60.5C124.104 61.5601 124.518 62.5185 125.176 63.25C124.516 63.9815 124.104 64.9399 124.104 66C124.104 66.484 124.203 66.9432 124.357 67.375H111.729C109.455 67.375 107.604 69.2257 107.604 71.5C107.604 73.7743 109.455 75.625 111.729 75.625H129.957C129.128 76.4129 128.434 77.3396 127.909 78.375H81.45ZM157.05 77H154.031L147.17 80.4073C146.222 80.8761 145.165 81.125 144.11 81.125H138.462C136.913 81.125 135.365 81.4908 133.981 82.1824L130.78 83.7842C130.45 83.9465 130.047 83.8764 129.795 83.6261C129.634 83.4653 129.546 83.2535 129.546 82.8932C129.546 78.8851 132.806 75.625 136.814 75.625H139.171H141.921V72.875H139.171H136.814H111.729C110.97 72.875 110.354 72.2576 110.354 71.5C110.354 70.7424 110.97 70.125 111.729 70.125H128.229H133.729V67.375H128.229C127.47 67.375 126.854 66.7576 126.854 66C126.854 65.2424 127.47 64.625 128.229 64.625H133.729V61.875H128.229C127.47 61.875 126.854 61.2576 126.854 60.5C126.854 59.7424 127.47 59.125 128.229 59.125H130.979H133.729V56.375H130.979C130.22 56.375 129.604 55.7576 129.604 55C129.604 54.2424 130.22 53.625 130.979 53.625H146.104C147.582 53.625 149.048 54.1131 150.23 55L153.896 57.75H157.1L157.05 77Z" fill="#1A4860"/>
<path d="M143.325 27.148L155.591 9.625H131.059L143.325 27.148ZM143.325 22.352L136.341 12.375H150.309L143.325 22.352Z" fill="#1A4860"/>
<path d="M124.075 6.875H80.075V17.875H124.075V6.875ZM121.325 15.125H82.825V9.625H121.325V15.125Z" fill="#1A4860"/>
<path d="M82.825 20.625H80.075V23.375H82.825V20.625Z" fill="#1A4860"/>
<path d="M113.075 20.625H85.575V23.375H113.075V20.625Z" fill="#1A4860"/>
<path d="M124.075 20.625H121.325V23.375H124.075V20.625Z" fill="#1A4860"/>
<path d="M118.575 20.625H115.825V23.375H118.575V20.625Z" fill="#1A4860"/>
<path d="M84.2 45.375C81.9258 45.375 80.075 47.2257 80.075 49.5C80.075 51.7743 81.9258 53.625 84.2 53.625C86.4743 53.625 88.325 51.7743 88.325 49.5C88.325 47.2257 86.4743 45.375 84.2 45.375ZM84.2 50.875C83.441 50.875 82.825 50.2576 82.825 49.5C82.825 48.7424 83.441 48.125 84.2 48.125C84.959 48.125 85.575 48.7424 85.575 49.5C85.575 50.2576 84.959 50.875 84.2 50.875Z" fill="#1A4860"/>
<path d="M93.825 45.375H91.075V48.125H93.825V45.375Z" fill="#1A4860"/>
<path d="M121.325 45.375H96.575V48.125H121.325V45.375Z" fill="#1A4860"/>
<path d="M121.325 50.875H91.075V53.625H121.325V50.875Z" fill="#1A4860"/>
<path d="M84.2 56.375C81.9258 56.375 80.075 58.2257 80.075 60.5C80.075 62.7743 81.9258 64.625 84.2 64.625C86.4743 64.625 88.325 62.7743 88.325 60.5C88.325 58.2257 86.4743 56.375 84.2 56.375ZM84.2 61.875C83.441 61.875 82.825 61.2576 82.825 60.5C82.825 59.7424 83.441 59.125 84.2 59.125C84.959 59.125 85.575 59.7424 85.575 60.5C85.575 61.2576 84.959 61.875 84.2 61.875Z" fill="#1A4860"/>
<path d="M121.325 61.875H91.075V64.625H121.325V61.875Z" fill="#1A4860"/>
<path d="M104.825 67.375H91.075V70.125H104.825V67.375Z" fill="#1A4860"/>
<path d="M110.325 56.375H91.075V59.125H110.325V56.375Z" fill="#1A4860"/>
<path d="M84.2 67.375C81.9258 67.375 80.075 69.2257 80.075 71.5C80.075 73.7743 81.9258 75.625 84.2 75.625C86.4743 75.625 88.325 73.7743 88.325 71.5C88.325 69.2257 86.4743 67.375 84.2 67.375ZM84.2 72.875C83.441 72.875 82.825 72.2576 82.825 71.5C82.825 70.7424 83.441 70.125 84.2 70.125C84.959 70.125 85.575 70.7424 85.575 71.5C85.575 72.2576 84.959 72.875 84.2 72.875Z" fill="#1A4860"/>
<path d="M104.825 72.875H91.075V75.625H104.825V72.875Z" fill="#1A4860"/>
<path d="M115.825 56.375H113.075V59.125H115.825V56.375Z" fill="#1A4860"/>
<path d="M121.325 56.375H118.575V59.125H121.325V56.375Z" fill="#1A4860"/>
<path d="M126.825 45.375H124.075V48.125H126.825V45.375Z" fill="#1A4860"/>
<path d="M132.325 45.375H129.575V48.125H132.325V45.375Z" fill="#1A4860"/>
<path d="M137.825 45.375H135.075V48.125H137.825V45.375Z" fill="#1A4860"/>
<path d="M93.825 26.125H80.075V28.875H93.825V26.125Z" fill="#1A4860"/>
<path d="M124.075 26.125H107.575V28.875H124.075V26.125Z" fill="#1A4860"/>
<path d="M57.2 88H0V79.1271L22.6619 56.1547C27.0246 51.779 30.7006 47.8895 33.6898 44.4862C36.6791 41.0829 38.9412 37.7606 40.4763 34.5193C42.0113 31.1971 42.7788 27.5912 42.7788 23.7017C42.7788 18.9208 41.365 15.3149 38.5373 12.884C35.7096 10.372 32.0336 9.11602 27.5093 9.11602C23.3082 9.11602 19.5918 9.8453 16.3602 11.3039C13.2093 12.7624 9.97768 14.7882 6.66525 17.3812L0.969492 10.2099C4.36271 7.37385 8.24068 4.98343 12.6034 3.03867C17.0469 1.01289 22.0155 0 27.5093 0C35.5884 0 41.9709 2.0663 46.6568 6.1989C51.3427 10.2505 53.6856 15.8821 53.6856 23.0939C53.6856 27.6317 52.7565 31.8858 50.8983 35.8564C49.0401 39.8269 46.4548 43.7569 43.1424 47.6464C39.8299 51.4549 35.952 55.547 31.5085 59.9227L13.4517 77.7901V78.2762H57.2V88Z" fill="#1A4860"/>
</svg>
