<svg width="138" height="88" viewBox="0 0 138 88" fill="none" xmlns="http://www.w3.org/2000/svg">
<path d="M130.697 5.61011H64.3668C63.7343 5.61011 63.2118 6.13261 63.2118 6.79261V18.4251V47.2451C63.2118 47.9051 63.7343 48.4276 64.3668 48.4276C65.0268 48.4276 65.5493 47.9051 65.5493 47.2451V19.5526H129.542V80.0801H65.5493V70.0976C65.5493 69.4376 65.0268 68.9151 64.3668 68.9151C63.7343 68.9151 63.2118 69.4376 63.2118 70.0976V81.2076C63.2118 81.8676 63.7343 82.3901 64.3668 82.3901H130.697C131.329 82.3901 131.879 81.8676 131.879 81.2076V18.3976V6.76511C131.879 6.10511 131.357 5.61011 130.697 5.61011ZM65.5493 17.2426V7.92011H129.542V17.2426H65.5493ZM125.417 11.7701C125.637 11.9901 125.774 12.2926 125.774 12.5676C125.774 12.9251 125.637 13.2001 125.417 13.3926C125.197 13.6401 124.894 13.7501 124.592 13.7501C124.289 13.7501 123.987 13.6401 123.767 13.3926C123.547 13.2001 123.409 12.8976 123.409 12.5676C123.409 12.2926 123.547 11.9901 123.739 11.7701C124.207 11.3026 124.977 11.3026 125.417 11.7701ZM119.367 12.5676C119.367 13.2551 118.844 13.7501 118.212 13.7501C117.579 13.7501 117.057 13.2551 117.057 12.5676C117.057 11.9351 117.579 11.4126 118.212 11.4126C118.844 11.4126 119.367 11.9351 119.367 12.5676ZM112.629 11.7151C112.822 11.9626 112.959 12.2651 112.959 12.5401C112.959 12.8976 112.849 13.1726 112.629 13.3651C112.409 13.6126 112.079 13.7226 111.804 13.7226C111.502 13.7226 111.199 13.6126 110.979 13.3651C110.759 13.1726 110.649 12.8701 110.649 12.5401C110.649 12.2651 110.759 11.9626 110.979 11.7426C111.419 11.3026 112.189 11.3026 112.629 11.7151ZM79.4918 36.0251C80.7843 36.0251 81.8293 34.9801 81.8293 33.7151V29.0401C81.8293 27.7476 80.7843 26.7301 79.4918 26.7301H74.8443C73.5518 26.7301 72.5343 27.7751 72.5343 29.0401V33.7151C72.5343 35.0076 73.5793 36.0251 74.8443 36.0251H79.4918ZM74.8443 29.0401H79.4918V33.7151H74.8443V29.0401ZM74.8443 70.5926H79.4918V65.9176L77.1818 65.9451C76.5493 65.9451 75.9993 65.3951 75.9993 64.7626C75.9993 64.1026 76.5493 63.5801 77.1818 63.5801H79.4918C80.7843 63.5801 81.8293 64.6251 81.8293 65.8901V70.5651C81.8293 71.8576 80.7843 72.8751 79.4918 72.8751H74.8443C74.2118 72.8751 73.6893 72.3526 73.6893 71.6926C73.6893 71.1151 74.2118 70.5926 74.8443 70.5926ZM123.877 27.8851C123.877 28.5451 123.354 29.0401 122.694 29.0401H113.427C112.794 29.0401 112.272 28.5451 112.272 27.8851C112.272 27.2251 112.794 26.7026 113.427 26.7026H122.694C123.354 26.7301 123.877 27.2251 123.877 27.8851ZM107.597 27.8851C107.597 28.5451 107.074 29.0401 106.442 29.0401H88.9793C88.3468 29.0401 87.8243 28.5451 87.8243 27.8851C87.8243 27.2251 88.3468 26.7026 88.9793 26.7026H106.442C107.074 26.7301 107.597 27.2251 107.597 27.8851ZM102.949 33.7151H115.737C116.369 33.7151 116.892 34.2376 116.892 34.8701C116.892 35.5301 116.369 36.0526 115.737 36.0526H102.949C102.289 36.0526 101.767 35.5301 101.767 34.8701C101.767 34.2376 102.289 33.7151 102.949 33.7151ZM87.7968 34.8701C87.7968 34.2376 88.3193 33.7151 88.9518 33.7151H97.1193C97.7518 33.7151 98.3018 34.2376 98.3018 34.8701C98.3018 35.5301 97.7518 36.0526 97.1193 36.0526H88.9518C88.3193 36.0251 87.7968 35.5026 87.7968 34.8701ZM123.877 46.3101C123.877 46.9701 123.354 47.4926 122.694 47.4926H101.739C101.107 47.4926 100.584 46.9701 100.584 46.3101C100.584 45.6776 101.107 45.1551 101.739 45.1551H122.694C123.354 45.1826 123.877 45.7051 123.877 46.3101ZM87.7968 46.3101C87.7968 45.6776 88.3193 45.1551 88.9518 45.1551H94.7543C95.4143 45.1551 95.9368 45.6776 95.9368 46.3101C95.9368 46.9701 95.4143 47.4926 94.7543 47.4926H88.9518C88.3193 47.4926 87.7968 46.9701 87.7968 46.3101ZM107.597 54.5051C106.964 54.5051 106.442 53.9826 106.442 53.3226C106.442 52.6626 106.964 52.1401 107.597 52.1401H113.372C114.004 52.1401 114.527 52.6626 114.527 53.3226C114.527 53.9826 114.004 54.5051 113.372 54.5051H107.597ZM87.7968 53.3226C87.7968 52.6626 88.3193 52.1401 88.9518 52.1401H101.794C102.427 52.1401 102.949 52.6626 102.949 53.3226C102.949 53.9826 102.427 54.5051 101.794 54.5051H88.9518C88.3193 54.5051 87.7968 53.9826 87.7968 53.3226ZM105.259 63.6076H122.722C123.354 63.6076 123.904 64.1301 123.904 64.7901C123.904 65.4226 123.382 65.9726 122.722 65.9726H105.259C104.627 65.9726 104.104 65.4226 104.104 64.7901C104.077 64.1301 104.599 63.6076 105.259 63.6076ZM87.7968 64.7626C87.7968 64.1026 88.3193 63.5801 88.9518 63.5801H98.2468C98.9068 63.5801 99.4293 64.1026 99.4293 64.7626C99.4293 65.3951 98.9068 65.9451 98.2468 65.9451H88.9518C88.3193 65.9451 87.7968 65.3951 87.7968 64.7626ZM87.7968 71.7476C87.7968 71.1151 88.3193 70.5926 88.9518 70.5926H108.724C109.357 70.5926 109.879 71.1151 109.879 71.7476C109.879 72.4076 109.357 72.9301 108.724 72.9301H88.9518C88.3193 72.9026 87.7968 72.4076 87.7968 71.7476ZM68.8493 71.4176C69.0418 71.8301 69.4543 72.1051 69.9218 72.1051C69.9493 72.1051 69.9493 72.1051 69.9768 72.1051C70.4718 72.0776 70.8843 71.8026 71.0218 71.3076L75.9993 56.7876H80.6468C82.5718 56.7876 84.1393 55.1926 84.1393 53.2676V46.3101C84.1393 44.4126 82.5718 42.8176 80.6468 42.8176H73.6893C71.7643 42.8176 70.1968 44.4126 70.1968 46.3101V50.9851L55.6768 55.9626C55.2368 56.1001 54.9068 56.5126 54.9068 57.0076C54.8793 57.5026 55.1543 57.9426 55.5943 58.1076L64.7793 62.2051L68.8493 71.4176ZM72.5343 46.3101C72.5343 45.6776 73.0568 45.1551 73.6893 45.1551H80.6743C81.3068 45.1551 81.8293 45.6776 81.8293 46.3101V53.2676C81.8293 53.9276 81.3068 54.4776 80.6743 54.4776H76.8243L78.3093 50.1876C78.4468 49.7751 78.3368 49.2801 78.0068 48.9776C77.7043 48.6751 77.2368 48.5651 76.8243 48.7026L72.5343 50.1876V46.3101ZM75.2843 51.7001L69.7843 67.7601L66.7318 60.8576C66.6218 60.6101 66.4018 60.4176 66.1268 60.2801L59.2243 57.2276L75.2843 51.7001Z" fill="#1A4860"/>
<path d="M33.3793 88H22.5875V26.4986C22.5875 22.9654 22.6293 20.1307 22.713 17.9944C22.7966 15.8581 22.9221 13.6396 23.0894 11.3389C21.7509 12.6536 20.5379 13.7628 19.4504 14.6667C18.3628 15.5705 16.9825 16.7208 15.3093 18.1176L5.77236 25.7591L0 18.4874L24.2188 0H33.3793V88Z" fill="#1A4860"/>
</svg>
