<svg width="170" height="88" viewBox="0 0 170 88" fill="none" xmlns="http://www.w3.org/2000/svg">
<g clip-path="url(#clip0_3_269)">
<path d="M153.884 46.75C153.519 46.75 153.17 46.8949 152.912 47.1527C152.654 47.4106 152.509 47.7603 152.509 48.125V53.625C152.509 53.9897 152.654 54.3394 152.912 54.5973C153.17 54.8551 153.519 55 153.884 55C154.249 55 154.598 54.8551 154.856 54.5973C155.114 54.3394 155.259 53.9897 155.259 53.625V48.125C155.259 47.7603 155.114 47.4106 154.856 47.1527C154.598 46.8949 154.249 46.75 153.884 46.75Z" fill="#1A4860"/>
<path d="M131.884 52.25V49.5C130.425 49.5 129.026 50.0795 127.995 51.1109C126.963 52.1424 126.384 53.5413 126.384 55C126.384 56.4587 126.963 57.8576 127.995 58.8891C129.026 59.9205 130.425 60.5 131.884 60.5V57.75C131.155 57.75 130.455 57.4603 129.939 56.9445C129.424 56.4288 129.134 55.7293 129.134 55C129.134 54.2707 129.424 53.5712 129.939 53.0555C130.455 52.5397 131.155 52.25 131.884 52.25Z" fill="#1A4860"/>
<path d="M162.134 55C162.155 54.272 162.027 53.5475 161.758 52.8708C161.489 52.194 161.085 51.5793 160.57 51.0644C160.055 50.5494 159.44 50.1451 158.763 49.8761C158.087 49.6071 157.362 49.4791 156.634 49.5V52.25C157.363 52.25 158.063 52.5397 158.579 53.0554C159.094 53.5712 159.384 54.2706 159.384 55C159.384 55.7293 159.094 56.4288 158.579 56.9445C158.063 57.4602 157.363 57.75 156.634 57.75H149.759V60.5H156.634C157.362 60.5209 158.087 60.3929 158.763 60.1239C159.44 59.8549 160.055 59.4505 160.57 58.9356C161.085 58.4206 161.489 57.8059 161.758 57.1292C162.027 56.4525 162.155 55.7279 162.134 55V55Z" fill="#1A4860"/>
<path d="M149.759 49.5C150.124 49.5 150.473 49.3551 150.731 49.0973C150.989 48.8394 151.134 48.4897 151.134 48.125C151.134 47.7603 150.989 47.4106 150.731 47.1527C150.473 46.8949 150.124 46.75 149.759 46.75C149.06 46.757 148.366 46.6359 147.71 46.3925C148.292 45.9733 148.843 45.5139 149.36 45.0175C149.488 44.8893 149.59 44.7371 149.66 44.5696C149.729 44.4021 149.765 44.2226 149.765 44.0413C149.765 43.8599 149.729 43.6804 149.66 43.5129C149.59 43.3454 149.488 43.1932 149.36 43.065C149.232 42.9368 149.08 42.8351 148.912 42.7657C148.745 42.6963 148.565 42.6606 148.384 42.6606C148.203 42.6606 148.023 42.6963 147.856 42.7657C147.688 42.8351 147.536 42.9368 147.408 43.065C145.053 45.2804 141.988 46.5866 138.759 46.75C138.394 46.75 138.045 46.8949 137.787 47.1527C137.529 47.4106 137.384 47.7603 137.384 48.125C137.384 48.4897 137.529 48.8394 137.787 49.0973C138.045 49.3551 138.394 49.5 138.759 49.5C140.914 49.4147 143.03 48.9054 144.988 48.0013C146.366 49.0207 148.046 49.5484 149.759 49.5V49.5Z" fill="#1A4860"/>
<path d="M141.509 50.875H138.759V53.625H141.509V50.875Z" fill="#1A4860"/>
<path d="M149.759 50.875H147.009V53.625H149.759V50.875Z" fill="#1A4860"/>
<path d="M134.29 45.375C134.471 45.4262 134.66 45.4399 134.846 45.4152C135.033 45.3904 135.212 45.3278 135.373 45.2312C135.534 45.1346 135.673 45.006 135.783 44.8533C135.892 44.7007 135.969 44.5273 136.009 44.3437C136.009 44.165 137.384 39.875 144.259 39.875C151.134 39.875 152.509 44.165 152.509 44.33C152.552 44.5106 152.631 44.6808 152.74 44.8311C152.849 44.9813 152.987 45.1086 153.145 45.2056C153.303 45.3027 153.479 45.3676 153.663 45.3966C153.846 45.4257 154.033 45.4183 154.214 45.375C154.395 45.3317 154.565 45.2532 154.715 45.144C154.865 45.0349 154.993 44.8972 155.09 44.7389C155.187 44.5806 155.252 44.4047 155.281 44.2213C155.31 44.0379 155.302 43.8506 155.259 43.67C155.259 43.395 153.513 37.125 144.259 37.125C135.005 37.125 133.369 43.395 133.259 43.67C133.21 43.8498 133.198 44.0377 133.224 44.2222C133.25 44.4068 133.313 44.5842 133.409 44.7437C133.505 44.9031 133.633 45.0413 133.785 45.1499C133.936 45.2584 134.108 45.335 134.29 45.375Z" fill="#1A4860"/>
<path d="M144.259 35.75C154.682 35.75 156.442 41.91 156.634 42.7625V48.125H159.384V42.625C159.391 42.5518 159.391 42.4782 159.384 42.405C159.384 42.3088 157.638 33 144.259 33C130.88 33 129.134 42.3088 129.134 42.405C129.127 42.4782 129.127 42.5518 129.134 42.625V48.125H131.884V42.7625C132.077 41.9375 133.864 35.75 144.259 35.75Z" fill="#1A4860"/>
<path d="M148.384 57.75H145.634V60.5H148.384V57.75Z" fill="#1A4860"/>
<path d="M167.634 77H160.759V68.75C160.76 68.5077 160.697 68.2695 160.576 68.0594C160.455 67.8493 160.281 67.6749 160.072 67.5538L150.447 62.0538C150.238 61.9331 150 61.8695 149.759 61.8695C149.518 61.8695 149.281 61.9331 149.072 62.0538C147.591 62.8433 145.937 63.2542 144.259 63.25C142.071 63.25 139.973 62.3808 138.425 60.8336C136.878 59.2865 136.009 57.188 136.009 55V48.125C136.009 47.7603 135.864 47.4106 135.606 47.1527C135.348 46.8949 134.999 46.75 134.634 46.75C134.269 46.75 133.92 46.8949 133.662 47.1527C133.404 47.4106 133.259 47.7603 133.259 48.125V55C133.261 56.4732 133.559 57.9309 134.136 59.2867C134.712 60.6424 135.555 61.8686 136.614 62.8925L128.447 67.5538C128.237 67.6749 128.063 67.8493 127.942 68.0594C127.821 68.2695 127.758 68.5077 127.759 68.75V77H120.884C120.519 77 120.17 77.1449 119.912 77.4027C119.654 77.6606 119.509 78.0103 119.509 78.375V86.625C119.509 86.9897 119.654 87.3394 119.912 87.5973C120.17 87.8551 120.519 88 120.884 88H167.634C167.999 88 168.348 87.8551 168.606 87.5973C168.864 87.3394 169.009 86.9897 169.009 86.625V78.375C169.009 78.0103 168.864 77.6606 168.606 77.4027C168.348 77.1449 167.999 77 167.634 77ZM146.762 65.7525C146.546 66.2405 146.194 66.6554 145.747 66.9467C145.3 67.2379 144.779 67.393 144.245 67.393C143.712 67.393 143.19 67.2379 142.743 66.9467C142.297 66.6554 141.944 66.2405 141.729 65.7525C142.56 65.9335 143.409 66.0166 144.259 66C145.099 65.9981 145.937 65.9152 146.762 65.7525V65.7525ZM130.509 69.5475L138.759 64.8175C138.759 66.2762 139.338 67.6751 140.37 68.7066C141.401 69.738 142.8 70.3175 144.259 70.3175C145.718 70.3175 147.117 69.738 148.148 68.7066C149.18 67.6751 149.759 66.2762 149.759 64.8175L158.009 69.5475V77H130.509V69.5475ZM166.259 85.25H122.259V79.75H166.259V85.25Z" fill="#1A4860"/>
<path d="M107.134 52.25C112.301 52.25 117.352 50.7178 121.648 47.8472C125.945 44.9765 129.293 40.8963 131.27 36.1226C133.248 31.3489 133.765 26.096 132.757 21.0283C131.749 15.9605 129.261 11.3055 125.607 7.65185C121.954 3.9982 117.299 1.51004 112.231 0.501996C107.163 -0.506043 101.91 0.0113195 97.1364 1.98866C92.3627 3.966 88.2825 7.3145 85.4119 11.6107C82.5412 15.907 81.009 20.958 81.009 26.125C81.009 33.0538 83.7615 39.6988 88.6609 44.5982C93.5603 49.4976 100.205 52.25 107.134 52.25V52.25ZM107.134 2.75001C111.757 2.75001 116.276 4.12093 120.12 6.68941C123.964 9.25789 126.961 12.9086 128.73 17.1798C130.499 21.451 130.962 26.1509 130.06 30.6852C129.158 35.2196 126.932 39.3846 123.663 42.6536C120.394 45.9227 116.229 48.1489 111.694 49.0509C107.16 49.9528 102.46 49.4899 98.1888 47.7207C93.9176 45.9515 90.2669 42.9555 87.6984 39.1115C85.13 35.2675 83.759 30.7481 83.759 26.125C83.759 19.9256 86.2217 13.9801 90.6054 9.59639C94.9891 5.21273 100.935 2.75001 107.134 2.75001V2.75001Z" fill="#1A4860"/>
<path d="M111.383 42.1713C113.604 42.2045 115.802 41.7047 117.79 40.7138L123.634 36.8225C123.815 36.7003 123.964 36.5369 124.069 36.3456C124.175 36.1543 124.233 35.9407 124.239 35.7225C124.247 35.5033 124.203 35.2853 124.109 35.0868C124.016 34.8883 123.877 34.7149 123.703 34.5813L117.818 30.25C117.022 29.6512 116.037 29.3603 115.044 29.4311C114.051 29.5019 113.117 29.9295 112.414 30.635L111.259 31.7625C110.53 32.395 108.152 32.6013 104.384 28.875C100.617 25.1488 100.864 22.77 101.469 22.0688L102.693 20.845C103.398 20.1424 103.826 19.2084 103.897 18.2152C103.967 17.222 103.677 16.2368 103.078 15.4413L98.6778 9.62501C98.5456 9.44855 98.3729 9.30646 98.1743 9.21074C97.9756 9.11502 97.7569 9.06847 97.5365 9.07501C97.3183 9.08129 97.1047 9.13944 96.9135 9.24464C96.7222 9.34985 96.5587 9.49908 96.4365 9.68001L92.4903 15.565C92.2703 15.9638 87.2378 25.3413 97.5778 35.6813C102.748 40.8513 107.684 42.1713 111.383 42.1713ZM94.8828 16.995L97.6328 12.7875L100.864 17.0913C101.064 17.3559 101.162 17.684 101.139 18.015C101.116 18.3461 100.975 18.6577 100.74 18.8925L99.5028 20.13C99.3515 20.2813 95.694 24.09 102.432 30.8138C105.113 33.5638 107.643 34.87 109.967 34.87C111.121 34.9088 112.248 34.5056 113.115 33.7425L114.353 32.505C114.588 32.2705 114.899 32.1288 115.23 32.1061C115.561 32.0833 115.889 32.1811 116.154 32.3813L120.472 35.6125L116.347 38.3625C116.03 38.5413 108.33 42.5563 99.5028 33.7425C90.6753 24.9288 94.759 17.215 94.8278 16.995H94.8828Z" fill="#1A4860"/>
<path d="M136.765 24.5988L145.015 28.7238C145.205 28.8267 145.418 28.8788 145.634 28.875C145.858 28.8869 146.082 28.8437 146.286 28.7491C146.49 28.6545 146.667 28.5114 146.803 28.3323C146.939 28.1532 147.028 27.9436 147.064 27.7218C147.1 27.5 147.081 27.2728 147.009 27.06L144.259 18.81C144.19 18.6035 144.072 18.4164 143.916 18.2641C143.76 18.1119 143.571 17.9989 143.362 17.9344C143.154 17.87 142.934 17.8559 142.719 17.8934C142.504 17.9309 142.302 18.0188 142.128 18.15L136.628 22.275C136.442 22.4156 136.294 22.6013 136.199 22.8145C136.105 23.0278 136.066 23.2617 136.086 23.4941C136.107 23.7265 136.187 23.9499 136.317 24.1432C136.448 24.3364 136.626 24.4932 136.834 24.5988H136.765ZM142.183 21.4913L143.283 24.7913L139.983 23.1413L142.183 21.4913Z" fill="#1A4860"/>
<path d="M159.384 28.875C159.599 28.8737 159.811 28.8219 160.003 28.7237L168.253 24.5987C168.461 24.4932 168.639 24.3364 168.769 24.1431C168.9 23.9499 168.98 23.7265 169 23.4941C169.021 23.2616 168.982 23.0278 168.887 22.8145C168.793 22.6012 168.645 22.4156 168.459 22.275L162.959 18.15C162.784 18.0199 162.58 17.9334 162.365 17.8975C162.15 17.8616 161.929 17.8775 161.722 17.9437C161.515 18.0077 161.326 18.1194 161.171 18.2699C161.016 18.4205 160.898 18.6055 160.828 18.81L158.078 27.06C158.008 27.2671 157.988 27.488 158.021 27.7042C158.053 27.9204 158.137 28.1257 158.264 28.3032C158.392 28.4806 158.56 28.6251 158.755 28.7245C158.95 28.824 159.165 28.8755 159.384 28.875ZM162.835 21.4912L165.035 23.1412L161.735 24.75L162.835 21.4912Z" fill="#1A4860"/>
<path d="M151.244 23.9112C151.35 24.1593 151.526 24.3708 151.751 24.5194C151.976 24.6681 152.239 24.7474 152.509 24.7474C152.779 24.7474 153.042 24.6681 153.267 24.5194C153.492 24.3708 153.668 24.1593 153.774 23.9112L157.899 14.2863C157.988 14.0773 158.023 13.8496 158.002 13.6236C157.981 13.3977 157.905 13.1803 157.78 12.9911C157.654 12.8018 157.484 12.6465 157.284 12.539C157.084 12.4315 156.861 12.3752 156.634 12.375H148.384C148.157 12.3752 147.934 12.4315 147.734 12.539C147.534 12.6465 147.364 12.8018 147.239 12.9911C147.113 13.1803 147.037 13.3977 147.016 13.6236C146.995 13.8496 147.031 14.0773 147.119 14.2863L151.244 23.9112ZM154.544 15.125L152.509 19.8825L150.474 15.125H154.544Z" fill="#1A4860"/>
<path d="M90.634 68.75C91.4499 68.75 92.2474 68.5081 92.9258 68.0548C93.6041 67.6015 94.1328 66.9573 94.445 66.2036C94.7572 65.4498 94.8389 64.6204 94.6798 63.8203C94.5206 63.0201 94.1277 62.2851 93.5508 61.7082C92.974 61.1313 92.239 60.7384 91.4388 60.5793C90.6386 60.4201 89.8092 60.5018 89.0555 60.814C88.3017 61.1262 87.6575 61.6549 87.2042 62.3333C86.751 63.0116 86.509 63.8092 86.509 64.625C86.509 65.719 86.9436 66.7682 87.7172 67.5418C88.4908 68.3154 89.54 68.75 90.634 68.75V68.75ZM90.634 63.25C90.906 63.25 91.1718 63.3306 91.3979 63.4817C91.6241 63.6328 91.8003 63.8476 91.9044 64.0988C92.0084 64.3501 92.0357 64.6265 91.9826 64.8933C91.9296 65.16 91.7986 65.405 91.6063 65.5973C91.414 65.7896 91.169 65.9205 90.9023 65.9736C90.6356 66.0266 90.3591 65.9994 90.1078 65.8953C89.8566 65.7913 89.6418 65.615 89.4908 65.3889C89.3397 65.1628 89.259 64.897 89.259 64.625C89.259 64.2603 89.4039 63.9106 89.6618 63.6527C89.9196 63.3949 90.2694 63.25 90.634 63.25Z" fill="#1A4860"/>
<path d="M101.634 68.75C102.45 68.75 103.247 68.5081 103.926 68.0548C104.604 67.6015 105.133 66.9573 105.445 66.2036C105.757 65.4498 105.839 64.6204 105.68 63.8203C105.521 63.0201 105.128 62.2851 104.551 61.7082C103.974 61.1313 103.239 60.7384 102.439 60.5793C101.639 60.4201 100.809 60.5018 100.055 60.814C99.3017 61.1262 98.6575 61.6549 98.2042 62.3333C97.751 63.0116 97.509 63.8092 97.509 64.625C97.509 65.719 97.9436 66.7682 98.7172 67.5418C99.4908 68.3154 100.54 68.75 101.634 68.75V68.75ZM101.634 63.25C101.906 63.25 102.172 63.3306 102.398 63.4817C102.624 63.6328 102.8 63.8476 102.904 64.0988C103.008 64.3501 103.036 64.6265 102.983 64.8933C102.93 65.16 102.799 65.405 102.606 65.5973C102.414 65.7896 102.169 65.9205 101.902 65.9736C101.636 66.0266 101.359 65.9994 101.108 65.8953C100.857 65.7913 100.642 65.615 100.491 65.3889C100.34 65.1628 100.259 64.897 100.259 64.625C100.259 64.2603 100.404 63.9106 100.662 63.6527C100.92 63.3949 101.269 63.25 101.634 63.25V63.25Z" fill="#1A4860"/>
<path d="M112.634 68.75C113.45 68.75 114.247 68.5081 114.926 68.0548C115.604 67.6015 116.133 66.9573 116.445 66.2036C116.757 65.4498 116.839 64.6204 116.68 63.8203C116.521 63.0201 116.128 62.2851 115.551 61.7082C114.974 61.1313 114.239 60.7384 113.439 60.5793C112.639 60.4201 111.809 60.5018 111.055 60.814C110.302 61.1262 109.657 61.6549 109.204 62.3333C108.751 63.0116 108.509 63.8092 108.509 64.625C108.509 65.719 108.944 66.7682 109.717 67.5418C110.491 68.3154 111.54 68.75 112.634 68.75V68.75ZM112.634 63.25C112.906 63.25 113.172 63.3306 113.398 63.4817C113.624 63.6328 113.8 63.8476 113.904 64.0988C114.008 64.3501 114.036 64.6265 113.983 64.8933C113.93 65.16 113.799 65.405 113.606 65.5973C113.414 65.7896 113.169 65.9205 112.902 65.9736C112.636 66.0266 112.359 65.9994 112.108 65.8953C111.857 65.7913 111.642 65.615 111.491 65.3889C111.34 65.1628 111.259 64.897 111.259 64.625C111.259 64.2603 111.404 63.9106 111.662 63.6527C111.92 63.3949 112.269 63.25 112.634 63.25Z" fill="#1A4860"/>
<path d="M122.259 72.875V56.375C122.259 56.0103 122.114 55.6606 121.856 55.4027C121.598 55.1449 121.249 55 120.884 55H82.384C82.0194 55 81.6696 55.1449 81.4118 55.4027C81.1539 55.6606 81.009 56.0103 81.009 56.375V72.875C81.009 73.2397 81.1539 73.5894 81.4118 73.8473C81.6696 74.1051 82.0194 74.25 82.384 74.25H99.6953L104.783 79.3513C104.911 79.4787 105.064 79.5795 105.231 79.6479C105.399 79.7164 105.578 79.7511 105.759 79.75C105.939 79.7547 106.118 79.717 106.282 79.64C106.533 79.5369 106.748 79.3617 106.899 79.1366C107.051 78.9115 107.133 78.6465 107.134 78.375V74.25H120.884C121.249 74.25 121.598 74.1051 121.856 73.8473C122.114 73.5894 122.259 73.2397 122.259 72.875ZM119.509 71.5H105.759C105.394 71.5 105.045 71.6449 104.787 71.9027C104.529 72.1606 104.384 72.5103 104.384 72.875V75.0613L101.235 71.8988C101.107 71.7713 100.954 71.6705 100.787 71.6021C100.619 71.5336 100.44 71.499 100.259 71.5H83.759V57.75H119.509V71.5Z" fill="#1A4860"/>
</g>
<path d="M65.009 68.1448H52.2765V88H41.8702V68.1448H0V58.9526L41.1356 0H52.2765V58.4624H65.009V68.1448ZM41.8702 30.8858C41.8702 26.637 41.9518 23.0418 42.1151 20.1003C42.2783 17.0771 42.4007 14.2173 42.4823 11.5209H41.9926C41.3397 13.0734 40.5235 14.7484 39.5441 16.546C38.5647 18.3435 37.626 19.8552 36.7282 21.0808L10.5288 58.4624H41.8702V30.8858Z" fill="#1A4860"/>
<defs>
<clipPath id="clip0_3_269">
<rect width="88" height="88" fill="white" transform="translate(81.009)"/>
</clipPath>
</defs>
</svg>
