<svg width="24" height="24" viewBox="0 0 24 24" fill="none" xmlns="http://www.w3.org/2000/svg">
<path d="M3.83999 1.44458C2.17439 1.44458 0.964679 2.44272 0.964679 3.81552C0.964679 5.19312 2.20319 6.23521 3.83999 6.23521C5.50559 6.23521 6.7153 5.21779 6.7153 3.78739C6.6385 2.40979 5.45279 1.44458 3.83999 1.44458ZM1.43999 7.19989C1.17599 7.19989 0.959991 7.41589 0.959991 7.67989V21.5999C0.959991 21.8639 1.17599 22.0799 1.43999 22.0799H6.23999C6.50399 22.0799 6.71999 21.8639 6.71999 21.5999V7.67989C6.71999 7.41589 6.50399 7.19989 6.23999 7.19989H1.43999ZM8.63999 7.19989C8.37599 7.19989 8.15999 7.41589 8.15999 7.67989V21.5999C8.15999 21.8639 8.37599 22.0799 8.63999 22.0799H12.96C13.225 22.0799 13.44 21.8649 13.44 21.5999V14.3999V14.2799V14.1599C13.44 13.0223 14.3139 12.0957 15.4275 12.0093C15.4851 11.9997 15.5424 11.9999 15.6 11.9999C15.6576 11.9999 15.7149 11.9997 15.7725 12.0093C16.8861 12.0957 17.76 13.0223 17.76 14.1599V21.5999C17.76 21.8649 17.975 22.0799 18.24 22.0799H22.56C22.824 22.0799 23.04 21.8639 23.04 21.5999V13.4399C23.04 10.3343 21.3739 7.19989 17.6587 7.19989C15.9691 7.19989 14.6928 7.85281 13.92 8.39521V7.67989C13.92 7.41589 13.704 7.19989 13.44 7.19989H8.63999Z" fill="white"/>
</svg>
