<svg width="40" height="40" viewBox="0 0 40 40" fill="none" xmlns="http://www.w3.org/2000/svg">
<path d="M21.5539 38.9813L26.6405 32.1248C26.8983 31.7831 26.7613 31.5051 26.3313 31.5051H24.2194C24.0914 31.5051 23.9881 31.4019 23.9881 31.2739V26.7352C23.9881 26.3061 23.6408 25.9575 23.211 25.9575H18.9592C18.5292 25.9575 18.1809 26.3061 18.1809 26.7352V31.2742C18.1809 31.4022 18.0777 31.5054 17.9509 31.5054H15.8393C15.4086 31.5054 15.2705 31.7831 15.5295 32.1251L20.6161 38.9816C20.8747 39.3233 21.2958 39.3233 21.5539 38.9813L21.5539 38.9813Z" fill="#00A775"/>
<path d="M28.0104 1.05774C27.8899 0.937204 27.6589 0.838095 27.4875 0.838095H9.16292C8.81858 0.838095 8.54089 1.11726 8.54298 1.46012V12.8895C8.54298 13.0618 8.68256 13.2014 8.85458 13.2014H9.83051C10.0007 13.2014 10.1406 13.0618 10.1406 12.8895V2.62736C10.1406 2.49938 10.2448 2.39701 10.3716 2.39701H26.1971C26.3251 2.39701 26.4272 2.49939 26.4272 2.62736L26.4298 7.33807C26.4266 7.68241 26.7033 7.96009 27.0471 7.96009H31.7998C31.9278 7.96009 32.0313 8.06337 32.0313 8.19045V33.5771C32.0313 33.7042 31.9278 33.8075 31.7998 33.8075L26.7634 33.8027C26.6355 33.8027 26.4703 33.8851 26.3962 33.989L25.5253 35.167C25.4497 35.2703 25.4926 35.3539 25.6191 35.3539L32.9569 35.3655C33.3001 35.3655 33.5789 35.0878 33.5801 34.7435L33.5929 6.93776C33.5929 6.76663 33.4953 6.52824 33.3733 6.40741L28.0104 1.05774Z" fill="#00A775"/>
<path d="M9.83023 25.9116H8.8543C8.68228 25.9116 8.5427 26.0512 8.5415 26.2232L8.54269 34.7451C8.5415 35.0895 8.81829 35.3671 9.16263 35.3671L16.5123 35.3555C16.6403 35.3555 16.6814 35.2719 16.6061 35.1686L15.7352 33.9906C15.6605 33.8871 15.4951 33.8043 15.3689 33.8043L10.3712 33.8091C10.2444 33.8091 10.1403 33.7058 10.1403 33.5787L10.1406 26.2231C10.1403 26.0511 10.0004 25.9118 9.83017 25.9118L9.83023 25.9116Z" fill="#00A775"/>
<path d="M11.7665 18.9607C11.8709 18.9223 11.9477 18.8655 12.0066 18.7887C12.0614 18.7146 12.0903 18.6283 12.0903 18.5238C12.0903 18.3932 12.0507 18.2956 11.9763 18.2188C11.8926 18.1331 11.7891 18.0839 11.6566 18.0616C11.57 18.0476 11.3563 18.0301 10.8388 18.0301H10.5552V19.0256H10.9183C11.5126 19.0256 11.7094 18.9783 11.7665 18.9607L11.7665 18.9607Z" fill="#00A775"/>
<path d="M16.9013 21.0598C17.3305 21.0598 17.6641 20.9357 17.8921 20.689C18.1409 20.4193 18.268 20.0062 18.268 19.4607C18.2701 18.9723 18.1507 18.6039 17.9108 18.3616C17.6966 18.1464 17.39 18.0372 16.9989 18.0372C16.9126 18.0372 16.8418 18.041 16.7808 18.0458V21.0595C16.8159 21.0604 16.8507 21.0604 16.8811 21.0604L16.9013 21.0601L16.9013 21.0598Z" fill="#00A775"/>
<path d="M7.10944 24.5973H27.1719C27.5154 24.5973 27.7951 24.3226 27.7951 23.9753L27.7954 15.1402C27.7954 14.792 27.5157 14.517 27.1722 14.517L7.09602 14.5167C6.75049 14.5167 6.474 14.7923 6.47609 15.1399L6.48115 23.975C6.48293 24.3226 6.76329 24.5973 7.10883 24.5973H7.10944ZM21.1925 16.5554H25.61V18.0872H23.0011V18.8786H25.3291V20.2661H23.0011V22.5571H21.1928V16.5554H21.1925ZM15.0428 16.6804L15.2827 16.6369C15.7118 16.5628 16.3014 16.5209 16.8817 16.5209C17.8699 16.5209 18.5529 16.7197 19.0936 17.1637C19.7109 17.6628 20.038 18.4429 20.038 19.42C20.038 20.7051 19.5392 21.4331 19.122 21.8197C18.5544 22.3325 17.7196 22.5931 16.6395 22.5931C16.1526 22.5931 15.6761 22.5643 15.2925 22.5095L15.0437 22.4744V16.6803L15.0428 16.6804ZM8.66807 16.5554H10.9856C11.7568 16.5554 12.2532 16.5878 12.5059 16.6486C12.9103 16.7429 13.2547 16.9554 13.5282 17.278C13.8017 17.5988 13.9374 18.0128 13.9374 18.506C13.9374 18.8849 13.8579 19.2143 13.7014 19.483C13.5457 19.7479 13.344 19.9631 13.0975 20.1155C12.8603 20.2664 12.6124 20.3655 12.3624 20.4176C12.0484 20.4747 11.6163 20.4991 11.0448 20.4991H10.5556V22.5575L8.66809 22.5569L8.66807 16.5554Z" fill="#00A775"/>
</svg>
