<svg width="24" height="24" viewBox="0 0 24 24" fill="none" xmlns="http://www.w3.org/2000/svg">
<path d="M14.05 6.0001C15.0335 6.19403 15.936 6.67912 16.6404 7.39241C17.3448 8.10569 17.8185 9.01423 18 10.0001L14.05 6.0001ZM14.05 2.0001C16.0883 2.21487 17.9922 3.11889 19.4469 4.56268C20.9016 6.00646 21.8199 7.90351 22.05 9.9401L14.05 2.0001ZM22.05 16.9401V19.9401C22.05 20.4705 21.8393 20.9792 21.4642 21.3543C21.0892 21.7294 20.5805 21.9401 20.05 21.9401H19.86C16.7829 21.6057 13.827 20.5542 11.23 18.8701C8.81426 17.3342 6.76587 15.2859 5.23002 12.8701C3.52394 10.2585 2.45839 7.28114 2.12002 4.1801C2.09525 3.91802 2.12246 3.65363 2.20008 3.4021C2.27771 3.15056 2.40423 2.91682 2.57239 2.71429C2.74055 2.51176 2.94704 2.34441 3.18001 2.22185C3.41298 2.0993 3.66786 2.02394 3.93002 2.0001H7.11002C7.59533 1.99532 8.06581 2.16718 8.43378 2.48363C8.80175 2.80008 9.0421 3.23954 9.11002 3.7201C9.23797 4.67991 9.47277 5.62242 9.81002 6.5301C9.94456 6.88802 9.97368 7.27701 9.89393 7.65098C9.81417 8.02494 9.62888 8.36821 9.36002 8.6401L8.09002 9.9101C9.51358 12.4136 11.5865 14.4865 14.09 15.9101L15.36 14.6401C15.6319 14.3712 15.9752 14.1859 16.3491 14.1062C16.7231 14.0264 17.1121 14.0556 17.47 14.1901C18.3777 14.5274 19.3202 14.7621 20.28 14.8901C20.7658 14.9586 21.2094 15.2033 21.5266 15.5776C21.8437 15.9519 22.0122 16.4297 22 16.9201L22.05 16.9401Z" stroke="#00A775" stroke-width="2" stroke-linecap="round" stroke-linejoin="round"/>
</svg>
