<svg width="48" height="48" viewBox="0 0 48 48" fill="none" xmlns="http://www.w3.org/2000/svg">
<path d="M24 4C18.6956 4 13.6085 6.1071 9.85769 9.85769C6.1071 13.6085 4 18.6957 4 24C4 29.3043 6.1071 34.3915 9.85769 38.1423C13.6085 41.8929 18.6957 44 24 44C29.3043 44 34.3915 41.8929 38.1423 38.1423C41.8929 34.3915 44 29.3043 44 24C43.994 18.6977 41.8848 13.6138 38.1355 9.86454C34.3861 6.11518 29.3028 4.00594 24 4ZM24 42.6662C19.0494 42.6662 14.3018 40.6996 10.8009 37.199C7.30038 33.6982 5.3337 28.95 5.3337 23.9999C5.3337 19.0499 7.3003 14.3017 10.8009 10.8008C14.3017 7.30031 19.05 5.33362 24 5.33362C28.95 5.33362 33.6982 7.30023 37.1991 10.8008C40.6996 14.3017 42.6663 19.0499 42.6663 23.9999C42.6606 28.949 40.6922 33.6935 37.1928 37.1929C33.6935 40.6923 28.9491 42.6607 23.9998 42.6664L24 42.6662Z" fill="#FDFEFF"/>
<path d="M24.6664 29.4001V7.99995H23.3331V29.4001C22.3206 29.6057 21.4605 30.2691 21.0048 31.1965C20.5492 32.1236 20.5492 33.2099 21.0048 34.137C21.4605 35.0643 22.3206 35.7277 23.3331 35.9333V41.3333H24.6664V35.9333C25.6789 35.7277 26.539 35.0643 26.9947 34.137C27.4503 33.2099 27.4503 32.1236 26.9947 31.1965C26.539 30.2691 25.6789 29.6057 24.6664 29.4001ZM23.9998 34.6667C23.4694 34.6667 22.9605 34.456 22.5855 34.081C22.2106 33.706 21.9998 33.197 21.9998 32.6668C21.9998 32.1365 22.2105 31.6275 22.5855 31.2525C22.9605 30.8776 23.4695 30.6668 23.9998 30.6668C24.53 30.6668 25.0391 30.8775 25.414 31.2525C25.7889 31.6275 25.9997 32.1365 25.9997 32.6668C25.9997 33.197 25.789 33.7061 25.414 34.081C25.039 34.4559 24.53 34.6667 23.9998 34.6667Z" fill="#FDFEFF"/>
<path d="M14.0004 20.7328V14.6662H12.6671V20.7328C11.6546 20.9384 10.7945 21.6018 10.3388 22.5292C9.88316 23.4562 9.88316 24.5425 10.3388 25.4696C10.7945 26.397 11.6546 27.0604 12.6671 27.266V36.6663H14.0004V27.266C15.0129 27.0604 15.873 26.397 16.3287 25.4696C16.7843 24.5425 16.7843 23.4562 16.3287 22.5292C15.873 21.6018 15.0129 20.9384 14.0004 20.7328ZM13.3337 25.9994C12.8034 25.9994 12.2944 25.7887 11.9195 25.4137C11.5446 25.0387 11.3338 24.5297 11.3338 23.9994C11.3338 23.4691 11.5445 22.9601 11.9195 22.5852C12.2945 22.2103 12.8035 21.9995 13.3337 21.9995C13.864 21.9995 14.373 22.2102 14.748 22.5852C15.1229 22.9602 15.3337 23.4691 15.3337 23.9994C15.3337 24.5297 15.123 25.0387 14.748 25.4137C14.373 25.7886 13.864 25.9994 13.3337 25.9994Z" fill="#FDFEFF"/>
<path d="M35.3334 14.7336V10.667H34.0001V14.7336C32.9876 14.9392 32.1275 15.6026 31.6718 16.53C31.2162 17.4571 31.2162 18.5434 31.6718 19.4704C32.1275 20.3978 32.9876 21.0612 34.0001 21.2668V32.0004H35.3334V21.2668C36.3459 21.0612 37.206 20.3978 37.6617 19.4704C38.1173 18.5434 38.1173 17.4571 37.6617 16.53C37.206 15.6026 36.3459 14.9392 35.3334 14.7336ZM34.6667 20.0002C34.1364 20.0002 33.6274 19.7895 33.2525 19.4145C32.8776 19.0395 32.6668 18.5305 32.6668 18.0003C32.6668 17.47 32.8775 16.9609 33.2525 16.586C33.6275 16.2111 34.1365 16.0003 34.6667 16.0003C35.197 16.0003 35.706 16.211 36.081 16.586C36.4559 16.961 36.6667 17.47 36.6667 18.0003C36.6667 18.5305 36.456 19.0396 36.081 19.4145C35.706 19.7894 35.197 20.0002 34.6667 20.0002Z" fill="#FDFEFF"/>
<path d="M34 33.333H35.3333V36.6663H34V33.333Z" fill="#FDFEFF"/>
<path d="M12.667 10.6666H14.0003V13.3332H12.667V10.6666Z" fill="#FDFEFF"/>
</svg>
