<svg width="48" height="48" viewBox="0 0 48 48" fill="none" xmlns="http://www.w3.org/2000/svg">
<path d="M5.33317 31.3339C4.96502 31.3339 4.6665 31.6324 4.6665 32.0006V43.3339C4.6665 43.5107 4.73674 43.6804 4.86174 43.8053C4.98674 43.9303 5.15639 44.0006 5.33317 44.0006H10.6665C10.8433 44.0006 11.0129 43.9303 11.1379 43.8053C11.2629 43.6803 11.3332 43.5107 11.3332 43.3339V32.0006C11.3332 31.8238 11.2629 31.6541 11.1379 31.5291C11.0129 31.4041 10.8433 31.3339 10.6665 31.3339H5.33317ZM9.99984 42.6673H5.99984V32.6672H9.99984V42.6673Z" fill="#FDFEFF"/>
<path d="M35.3337 43.3339V26.6672C35.3337 26.4904 35.2634 26.3208 35.1384 26.1958C35.0134 26.0708 34.8438 26.0005 34.667 26.0005H29.3337C28.9655 26.0005 28.667 26.2991 28.667 26.6672V43.3339C28.667 43.5107 28.7372 43.6803 28.8622 43.8053C28.9872 43.9303 29.1569 44.0006 29.3337 44.0006H34.667C34.8438 44.0006 35.0134 43.9303 35.1384 43.8053C35.2634 43.6803 35.3337 43.5107 35.3337 43.3339ZM34.0003 42.6672H30.0003V27.3339H34.0003V42.6672Z" fill="#FDFEFF"/>
<path d="M21.3337 29.3339C20.9655 29.3339 20.667 29.6324 20.667 30.0006V43.3339C20.667 43.5107 20.7372 43.6804 20.8622 43.8053C20.9872 43.9303 21.1569 44.0006 21.3337 44.0006H26.667C26.8438 44.0006 27.0134 43.9303 27.1384 43.8053C27.2634 43.6803 27.3337 43.5107 27.3337 43.3339V30.0006C27.3337 29.8238 27.2634 29.6541 27.1384 29.5291C27.0134 29.4041 26.8438 29.3339 26.667 29.3339H21.3337ZM26.0003 42.6673H22.0003V30.6672H26.0003V42.6673Z" fill="#FDFEFF"/>
<path d="M13.3332 21.3339C12.965 21.3339 12.6665 21.6324 12.6665 22.0006V43.3339C12.6665 43.5107 12.7367 43.6803 12.8617 43.8053C12.9867 43.9303 13.1564 44.0006 13.3332 44.0006H18.6665C18.8433 44.0006 19.0129 43.9303 19.1379 43.8053C19.2629 43.6803 19.3332 43.5107 19.3332 43.3339V22.0006C19.3332 21.8238 19.2629 21.6541 19.1379 21.5291C19.0129 21.4041 18.8433 21.3339 18.6665 21.3339H13.3332ZM17.9998 42.6672H13.9998V22.6672H17.9998V42.6672Z" fill="#FDFEFF"/>
<path d="M43.3332 43.3339V35.3339C43.3332 35.1571 43.2629 34.9875 43.1379 34.8625C43.0129 34.7375 42.8433 34.6672 42.6665 34.6672H37.3332C36.965 34.6672 36.6665 34.9657 36.6665 35.3339V43.3339C36.6665 43.5107 36.7367 43.6803 36.8617 43.8053C36.9867 43.9303 37.1564 44.0006 37.3332 44.0006H42.6665C42.8433 44.0006 43.0129 43.9303 43.1379 43.8053C43.2629 43.6803 43.3332 43.5107 43.3332 43.3339ZM41.9998 42.6672H37.9998V36.0006H41.9998V42.6672Z" fill="#FDFEFF"/>
<path d="M7.95343 26.911L16.0258 6.42036L23.3871 23.5967C23.4835 23.8214 23.6954 23.9753 23.9389 23.9979C24.1826 24.0203 24.419 23.9075 24.5547 23.7039L31.9999 12.5336L36.7785 19.7014C36.9017 19.8878 37.1101 20 37.3333 20.0003H39.9999V21.3336C39.9999 21.594 40.1514 21.8306 40.388 21.9392C40.6246 22.0479 40.9029 22.0092 41.1005 21.8395L43.7672 19.5535C43.927 19.4166 44.0127 19.2119 43.9985 19.0017C43.9839 18.7916 43.8711 18.6008 43.694 18.4869L41.0273 16.7729C40.8223 16.641 40.5613 16.6315 40.3473 16.7485C40.1333 16.8651 39.9999 17.0895 39.9999 17.3336V18.6669H37.6898L32.5565 10.9633C32.4259 10.7883 32.2202 10.6853 32.0021 10.6853C31.7836 10.6853 31.5779 10.7883 31.4473 10.9633L24.128 21.9393L16.6128 4.40406C16.5083 4.15407 16.261 3.99365 15.9899 4.00019C15.7199 4.00436 15.4789 4.17132 15.38 4.42281L6.87947 26H4V27.3333H7.33333C7.60715 27.333 7.85298 27.1654 7.95327 26.9107L7.95343 26.911ZM41.3332 18.5552L42.2199 19.1252L41.3332 19.8844V18.5552Z" fill="#FDFEFF"/>
</svg>
