<svg width="48" height="48" viewBox="0 0 48 48" fill="none" xmlns="http://www.w3.org/2000/svg">
<path d="M4.66671 43.9989H11.3332C11.51 43.9989 11.6796 43.9286 11.8046 43.8036C11.9296 43.6786 11.9998 43.509 11.9998 43.3322V39.2835C11.9975 38.6957 11.8365 38.1193 11.5344 37.6148C11.2323 37.1104 10.7999 36.6967 10.2826 36.4169C10.9356 35.8035 11.3138 34.953 11.3326 34.0571C11.351 33.1613 11.0082 32.2956 10.3811 31.6557C9.75434 31.0155 8.89605 30.6548 7.99992 30.6548C7.10379 30.6548 6.24553 31.0155 5.61873 31.6557C4.99166 32.2955 4.64885 33.1613 4.66729 34.0571C4.68604 34.953 5.0643 35.8035 5.71724 36.4169C5.19999 36.6967 4.76755 37.1103 4.46547 37.6148C4.16339 38.1193 4.00238 38.6958 4 39.2835V43.3322C4 43.509 4.07024 43.6787 4.19523 43.8036C4.32023 43.9286 4.48987 43.9989 4.66665 43.9989H4.66671ZM7.99995 31.9992C8.53029 31.9992 9.03924 32.2099 9.41416 32.5849C9.78909 32.9599 9.99986 33.4688 9.99986 33.9991C9.99986 34.5294 9.78915 35.0384 9.41416 35.4133C9.03917 35.7882 8.53022 35.999 7.99995 35.999C7.46968 35.999 6.96067 35.7883 6.58574 35.4133C6.21082 35.0383 6.00005 34.5294 6.00005 33.9991C6.00005 33.4688 6.21075 32.9598 6.58574 32.5849C6.96074 32.21 7.46968 31.9992 7.99995 31.9992ZM5.33336 39.2835C5.33395 38.7663 5.5396 38.2704 5.90537 37.9043C6.27143 37.5386 6.76721 37.3329 7.28453 37.3323H8.71542C9.23267 37.3329 9.7285 37.5386 10.0946 37.9043C10.4604 38.2704 10.666 38.7662 10.6666 39.2835V42.6656H5.3334L5.33336 39.2835Z" fill="#FDFEFF"/>
<path d="M25.3328 39.2835V43.3323C25.3328 43.5091 25.4031 43.6787 25.5281 43.8037C25.6531 43.9287 25.8227 43.9989 25.9995 43.9989H32.666C32.8427 43.9989 33.0124 43.9287 33.1374 43.8037C33.2624 43.6787 33.3326 43.5091 33.3326 43.3323V39.2835C33.3302 38.6958 33.1692 38.1193 32.8671 37.6149C32.5651 37.1104 32.1326 36.6967 31.6154 36.4169C32.2683 35.8036 32.6466 34.953 32.6653 34.0571C32.6838 33.1613 32.3409 32.2956 31.7139 31.6557C31.0871 31.0155 30.2288 30.6548 29.3327 30.6548C28.4366 30.6548 27.5783 31.0155 26.9515 31.6557C26.3244 32.2955 25.9816 33.1613 26.0001 34.0571C26.0188 34.953 26.3971 35.8035 27.05 36.4169C26.5328 36.6967 26.1003 37.1104 25.7982 37.6149C25.4962 38.1193 25.3351 38.6958 25.3328 39.2835H25.3328ZM29.3327 31.9992C29.8631 31.9992 30.372 32.2099 30.7469 32.5849C31.1218 32.9599 31.3326 33.4689 31.3326 33.9991C31.3326 34.5294 31.1219 35.0384 30.7469 35.4133C30.3719 35.7883 29.863 35.999 29.3327 35.999C28.8024 35.999 28.2934 35.7883 27.9185 35.4133C27.5436 35.0383 27.3328 34.5294 27.3328 33.9991C27.3328 33.4689 27.5435 32.9598 27.9185 32.5849C28.2935 32.21 28.8024 31.9992 29.3327 31.9992ZM26.6661 39.2835C26.6667 38.7663 26.8724 38.2705 27.2381 37.9044C27.6042 37.5386 28.1 37.333 28.6173 37.3324H30.0482C30.5654 37.333 31.0613 37.5386 31.4273 37.9044C31.7931 38.2704 31.9988 38.7662 31.9994 39.2835V42.6656H26.6662L26.6661 39.2835Z" fill="#FDFEFF"/>
<path d="M42.2816 36.415C42.9346 35.8013 43.3129 34.9508 43.3316 34.0549C43.3501 33.1591 43.0072 32.2937 42.3802 31.6535C41.7534 31.0133 40.8951 30.6526 39.999 30.6526C39.1028 30.6526 38.2446 31.0133 37.6178 31.6535C36.9907 32.2936 36.6479 33.1591 36.6663 34.0549C36.6851 34.9508 37.0633 35.8013 37.7163 36.415C37.1987 36.6948 36.7663 37.1088 36.4639 37.6135C36.1618 38.1182 36.0011 38.6953 35.999 39.2834V43.3321C35.999 43.5089 36.0693 43.6785 36.1943 43.8035C36.3193 43.9285 36.4889 43.9987 36.6657 43.9987H43.3322C43.5089 43.9987 43.6786 43.9285 43.8036 43.8035C43.9286 43.6785 43.9988 43.5089 43.9988 43.3321V39.2834C43.9967 38.6953 43.836 38.1182 43.5339 37.6135C43.2316 37.1087 42.7991 36.6947 42.2816 36.415H42.2816ZM39.999 31.9991C40.5293 31.9991 41.0382 32.2098 41.4132 32.5848C41.7881 32.9598 41.9989 33.4687 41.9989 33.999C41.9989 34.5292 41.7882 35.0383 41.4132 35.4132C41.0382 35.7881 40.5292 35.9989 39.999 35.9989C39.4687 35.9989 38.9597 35.7882 38.5848 35.4132C38.2098 35.0382 37.9991 34.5292 37.9991 33.999C37.9991 33.4687 38.2098 32.9597 38.5848 32.5848C38.9597 32.2098 39.4687 31.9991 39.999 31.9991ZM42.6656 42.6654H37.3324V39.2834C37.333 38.7661 37.5386 38.2703 37.9044 37.9042C38.2704 37.5384 38.7662 37.3328 39.2835 37.3322H40.7144C41.2317 37.3328 41.7275 37.5384 42.0936 37.9042C42.4594 38.2703 42.665 38.766 42.6656 39.2834L42.6656 42.6654Z" fill="#FDFEFF"/>
<path d="M36.2665 4H11.7339C9.68332 4.00179 7.71758 4.81697 6.26764 6.26691C4.8177 7.71685 4.00256 9.68259 4.00073 11.7331V18.9329C4.00252 20.9835 4.8177 22.9492 6.26764 24.3991C7.71758 25.8491 9.68332 26.6642 11.7339 26.6661H16.3337L18.1337 29.066C18.2596 29.2338 18.4572 29.3326 18.667 29.3326C18.8768 29.3326 19.0744 29.2338 19.2003 29.066L21.0003 26.6661H36.2669C38.3174 26.6643 40.2832 25.8491 41.7331 24.3991C43.1831 22.9492 43.9982 20.9835 44 18.9329V11.7331C43.9982 9.68259 43.1831 7.71685 41.7331 6.26691C40.2832 4.81697 38.3174 4.00183 36.2669 4H36.2665ZM42.6664 18.9329C42.6649 20.6299 41.9902 22.257 40.7902 23.4566C39.5906 24.6566 37.9635 25.3312 36.2665 25.3328H20.6669C20.4571 25.3328 20.2595 25.4316 20.1336 25.5994L18.667 27.5547L17.2004 25.5994C17.0745 25.4316 16.8769 25.3328 16.6671 25.3328H11.7339C10.0369 25.3313 8.40983 24.6566 7.21017 23.4566C6.0102 22.257 5.33555 20.6299 5.33403 18.9329V11.7331C5.33552 10.0362 6.0102 8.4091 7.21017 7.20944C8.40983 6.00947 10.0369 5.33482 11.7339 5.3333H36.2665C37.9635 5.33479 39.5906 6.00947 40.7902 7.20944C41.9902 8.4091 42.6648 10.0362 42.6664 11.7331V18.9329Z" fill="#FDFEFF"/>
<path d="M26.6523 15.8662C26.6073 15.6469 26.4556 15.4644 26.2475 15.3808L23.0401 14.0981L19.2349 10.2929L17.9525 7.08518C17.8692 6.87715 17.687 6.72477 17.4674 6.67984C17.2478 6.6349 17.0201 6.70305 16.8618 6.86167L11.5286 12.1949C11.3699 12.3532 11.3018 12.5809 11.3467 12.8005C11.3917 13.0201 11.544 13.2023 11.7521 13.2856L14.9595 14.5683L15.6336 15.2424L9.61825 19.4536L9.61795 19.4533C9.46706 19.5589 9.36647 19.7223 9.34028 19.9048C9.31409 20.0872 9.36439 20.272 9.47956 20.416L12.1462 23.7493C12.2726 23.9076 12.464 23.9996 12.6667 23.9996C12.8693 23.9996 13.0607 23.9076 13.1872 23.7493L18.0537 17.664L18.7629 18.3732L20.0456 21.5806H20.0459C20.1293 21.7887 20.3117 21.9404 20.531 21.9854C20.5757 21.9946 20.6209 21.9994 20.6665 21.9994C20.8432 21.9994 21.0129 21.9291 21.1379 21.8041L26.4711 16.4709C26.6291 16.3126 26.6973 16.0855 26.6523 15.8662L26.6523 15.8662ZM15.1722 13.2184L13.1857 12.4237L17.0894 8.51997L17.8841 10.5065L15.1722 13.2184ZM12.6663 22.2657L10.9642 20.1384L16.5903 16.1992L17.1063 16.7153L12.6663 22.2657ZM19.3328 17.0573L17.1376 14.8621L16.2755 13.9994L18.6662 11.6086L21.7236 14.666L19.3328 17.0573ZM20.9095 20.1471L20.1148 18.1605L22.8267 15.4487L24.8132 16.2433L20.9095 20.1471Z" fill="#FDFEFF"/>
<path d="M31.9993 19.9995H30.666C29.7824 20.0007 28.9351 20.3522 28.3101 20.9769C27.6854 21.6018 27.334 22.4491 27.3328 23.3328C27.3328 23.5095 27.403 23.6792 27.528 23.8042C27.653 23.9292 27.8226 23.9994 27.9994 23.9994H34.6659C34.8427 23.9994 35.0123 23.9292 35.1373 23.8042C35.2623 23.6792 35.3325 23.5095 35.3325 23.3328C35.3314 22.4491 34.9799 21.6018 34.3552 20.9769C33.7302 20.3522 32.8829 20.0007 31.9993 19.9995ZM28.78 22.6661C28.9184 22.2765 29.1741 21.939 29.5116 21.7003C29.8494 21.4617 30.2526 21.3334 30.666 21.3328H31.9993C32.4127 21.3334 32.8159 21.4617 33.1537 21.7003C33.4912 21.939 33.7468 22.2765 33.8852 22.6661H28.78Z" fill="#FDFEFF"/>
<path d="M30.666 16.6663H31.9993V18.6662H30.666V16.6663Z" fill="#FDFEFF"/>
<path d="M26.1541 18.7639L27.0969 17.821L28.5111 19.2353L27.5683 20.1781L26.1541 18.7639Z" fill="#FDFEFF"/>
<path d="M34.1545 19.2355L35.5687 17.8213L36.5116 18.7641L35.0974 20.1783L34.1545 19.2355Z" fill="#FDFEFF"/>
<path d="M12.6665 29.3328V34.666C12.6692 35.3761 12.8986 36.0665 13.3218 36.6367C13.745 37.2066 14.3396 37.6266 15.0186 37.8346C14.7903 38.2837 14.6698 38.7798 14.6665 39.2837V43.3325C14.6665 43.5092 14.7367 43.6789 14.8617 43.8039C14.9867 43.9289 15.1564 43.9991 15.3331 43.9991H21.9996C22.1764 43.9991 22.346 43.9289 22.471 43.8039C22.596 43.6789 22.6663 43.5092 22.6663 43.3325V39.2837C22.6639 38.696 22.5029 38.1195 22.2008 37.6151C21.8987 37.1106 21.4663 36.6969 20.949 36.4171C21.602 35.8038 21.9802 34.9532 21.999 34.0574C22.0174 33.1615 21.6746 32.2958 21.0475 31.6559C20.4208 31.0157 19.5625 30.655 18.6663 30.655C17.7702 30.655 16.912 31.0157 16.2852 31.6559C15.6581 32.2958 15.3153 33.1615 15.3337 34.0574C15.3525 34.9532 15.7307 35.8037 16.3837 36.4171C16.2465 36.4909 16.1149 36.5746 15.9896 36.6671C15.4608 36.6648 14.9545 36.4526 14.5817 36.0776C14.2088 35.7026 13.9995 35.1948 13.9998 34.666V29.3328L12.6665 29.3328ZM18.6663 31.9994C19.1967 31.9994 19.7056 32.2101 20.0806 32.5851C20.4555 32.96 20.6663 33.469 20.6663 33.9993C20.6663 34.5295 20.4555 35.0386 20.0806 35.4135C19.7056 35.7884 19.1966 35.9992 18.6663 35.9992C18.1361 35.9992 17.6271 35.7885 17.2521 35.4135C16.8772 35.0385 16.6664 34.5295 16.6664 33.9993C16.6664 33.469 16.8771 32.96 17.2521 32.5851C17.6271 32.2101 18.1361 31.9994 18.6663 31.9994ZM15.9997 39.2837C16.0003 38.7664 16.206 38.2706 16.5718 37.9045C16.9378 37.5387 17.4336 37.3331 17.9509 37.3325H19.3818C19.8991 37.3331 20.3949 37.5387 20.761 37.9045C21.1267 38.2706 21.3324 38.7663 21.333 39.2837V42.6657H15.9998L15.9997 39.2837Z" fill="#FDFEFF"/>
</svg>
