<svg width="38" height="42" viewBox="0 0 38 42" fill="none" xmlns="http://www.w3.org/2000/svg">
<path d="M10.436 20.001H21.188C23.9209 20.001 26.4447 21.4867 27.7738 23.8799C28.0618 24.3982 28.7143 24.5864 29.2348 24.2984C29.7538 24.0104 29.9413 23.3565 29.6533 22.8374C28.0505 19.9492 25.0881 18.111 21.8226 17.895C24.0523 16.1197 25.4886 13.3889 25.4886 10.3244C25.4886 4.98893 21.1469 0.648003 15.8122 0.648003C10.4767 0.648003 6.13577 4.9897 6.13577 10.3244C6.13577 13.3822 7.56601 16.1092 9.78818 17.8844C4.7549 18.2197 0.759766 22.4106 0.759766 27.5272V33.9788C0.759766 34.5721 1.24127 35.0543 1.83528 35.0543H19.0389C19.6321 35.0543 20.1144 34.5728 20.1144 33.9788C20.1144 33.3856 19.6329 32.9033 19.0389 32.9033H2.91009V27.5273C2.91009 23.3776 6.28584 20.0011 10.4363 20.0011L10.436 20.001ZM8.28576 10.3246C8.28576 6.17409 11.6623 2.79834 15.812 2.79834C19.9624 2.79834 23.3382 6.17486 23.3382 10.3246C23.3382 14.475 19.9617 17.8508 15.812 17.8508C11.6615 17.8508 8.28576 14.4742 8.28576 10.3246ZM36.241 32.9038H35.0575C34.918 32.219 34.6442 31.5838 34.2707 31.019L35.1129 30.1768C35.5337 29.756 35.5337 29.0758 35.1129 28.6565C34.6922 28.2373 34.0119 28.2358 33.5927 28.6565L32.7504 29.4988C32.1872 29.1245 31.5504 28.8515 30.8657 28.712L30.8649 27.5277C30.8649 26.9345 30.3834 26.4522 29.7894 26.4522C29.1962 26.4522 28.7139 26.9337 28.7139 27.5277V28.7112C28.0292 28.8507 27.3939 29.1245 26.8292 29.498L25.9869 28.6558C25.5662 28.235 24.8859 28.235 24.4667 28.6558C24.0474 29.0765 24.0459 29.7568 24.4667 30.176L25.3089 31.0183C24.9347 31.5815 24.6617 32.2183 24.5222 32.903L23.3387 32.9038C22.7454 32.9038 22.2632 33.3853 22.2632 33.9793C22.2632 34.5725 22.7447 35.0548 23.3387 35.0548H24.5222C24.6617 35.7395 24.9354 36.3748 25.3089 36.9395L24.4667 37.7818C24.0459 38.2025 24.0459 38.8828 24.4667 39.302C24.8874 39.7228 25.5677 39.7228 25.9869 39.302L26.8292 38.4598C27.3924 38.834 28.0292 39.107 28.7139 39.2465L28.7147 40.4308C28.7147 41.024 29.1962 41.5063 29.7902 41.5063C30.3834 41.5063 30.8657 41.0248 30.8657 40.4308V39.2473C31.5504 39.1078 32.1857 38.834 32.7504 38.4605L33.5927 39.3028C34.0134 39.7235 34.6937 39.7235 35.1129 39.3028C35.5337 38.8835 35.5337 38.2018 35.1129 37.7825L34.2707 36.9403C34.6449 36.377 34.918 35.7403 35.0575 35.0555L36.241 35.0548C36.8342 35.0548 37.3165 34.5733 37.3165 33.9793C37.3165 33.386 36.835 32.9038 36.241 32.9038ZM29.7902 37.2049C28.0119 37.2049 26.5644 35.7574 26.5644 33.9791C26.5644 32.2009 28.0119 30.7534 29.7902 30.7534C31.5684 30.7534 33.0159 32.2009 33.0159 33.9791C33.0159 35.7574 31.5684 37.2049 29.7902 37.2049Z" fill="#FDFEFF"/>
</svg>
