<svg width="48" height="48" viewBox="0 0 48 48" fill="none" xmlns="http://www.w3.org/2000/svg">
<path d="M4.66671 43.9989H11.3332C11.51 43.9989 11.6796 43.9287 11.8046 43.8037C11.9296 43.6787 11.9998 43.5091 11.9998 43.3323V39.2835C11.9975 38.6958 11.8365 38.1193 11.5344 37.6149C11.2323 37.1104 10.7999 36.6967 10.2826 36.417C10.9356 35.8036 11.3138 34.953 11.3326 34.0572C11.351 33.1614 11.0082 32.2956 10.3811 31.6557C9.75434 31.0156 8.89605 30.6548 7.99992 30.6548C7.10379 30.6548 6.24553 31.0155 5.61873 31.6557C4.99166 32.2956 4.64885 33.1614 4.66729 34.0572C4.68604 34.953 5.0643 35.8036 5.71724 36.417C5.19999 36.6967 4.76755 37.1104 4.46547 37.6149C4.16339 38.1193 4.00238 38.6958 4 39.2835V43.3323C4 43.5091 4.07024 43.6787 4.19523 43.8037C4.32023 43.9287 4.48987 43.9989 4.66665 43.9989H4.66671ZM7.99995 31.9993C8.53029 31.9993 9.03924 32.21 9.41416 32.5849C9.78908 32.9599 9.99986 33.4689 9.99986 33.9992C9.99986 34.5294 9.78915 35.0384 9.41416 35.4134C9.03917 35.7883 8.53022 35.9991 7.99995 35.9991C7.46968 35.9991 6.96067 35.7884 6.58574 35.4134C6.21082 35.0384 6.00005 34.5294 6.00005 33.9992C6.00005 33.4689 6.21075 32.9599 6.58574 32.5849C6.96074 32.21 7.46968 31.9993 7.99995 31.9993ZM5.33336 39.2835C5.33395 38.7663 5.5396 38.2705 5.90537 37.9044C6.27143 37.5386 6.76721 37.333 7.28453 37.3324H8.71542C9.23267 37.333 9.7285 37.5386 10.0946 37.9044C10.4604 38.2704 10.666 38.7662 10.6666 39.2835V42.6656H5.3334L5.33336 39.2835Z" fill="#1A4860"/>
<path d="M25.3326 39.2837V43.3324C25.3326 43.5092 25.4028 43.6788 25.5278 43.8038C25.6528 43.9288 25.8224 43.9991 25.9992 43.9991H32.6657C32.8425 43.9991 33.0121 43.9288 33.1371 43.8038C33.2621 43.6788 33.3324 43.5092 33.3324 43.3324V39.2837C33.33 38.6959 33.169 38.1194 32.8669 37.615C32.5648 37.1105 32.1324 36.6968 31.6151 36.4171C32.2681 35.8037 32.6463 34.9531 32.6651 34.0573C32.6835 33.1614 32.3407 32.2957 31.7136 31.6558C31.0869 31.0156 30.2286 30.6549 29.3324 30.6549C28.4363 30.6549 27.5781 31.0156 26.9512 31.6558C26.3242 32.2957 25.9814 33.1614 25.9998 34.0573C26.0186 34.9531 26.3968 35.8037 27.0498 36.4171C26.5325 36.6968 26.1001 37.1105 25.798 37.615C25.4959 38.1194 25.3349 38.6959 25.3325 39.2837H25.3326ZM29.3325 31.9993C29.8628 31.9993 30.3718 32.21 30.7467 32.585C31.1216 32.96 31.3324 33.469 31.3324 33.9992C31.3324 34.5295 31.1217 35.0385 30.7467 35.4135C30.3717 35.7884 29.8627 35.9992 29.3325 35.9992C28.8022 35.9992 28.2932 35.7885 27.9183 35.4135C27.5433 35.0385 27.3326 34.5295 27.3326 33.9992C27.3326 33.469 27.5433 32.96 27.9183 32.585C28.2933 32.2101 28.8022 31.9993 29.3325 31.9993ZM26.6659 39.2837C26.6665 38.7664 26.8721 38.2706 27.2379 37.9045C27.6039 37.5387 28.0997 37.3331 28.617 37.3325H30.0479C30.5652 37.3331 31.061 37.5387 31.4271 37.9045C31.7929 38.2706 31.9985 38.7663 31.9991 39.2837V42.6658H26.6659L26.6659 39.2837Z" fill="#1A4860"/>
<path d="M42.2816 36.4151C42.9346 35.8015 43.3129 34.9509 43.3316 34.055C43.3501 33.1592 43.0072 32.2938 42.3802 31.6536C41.7534 31.0134 40.8951 30.6527 39.999 30.6527C39.1028 30.6527 38.2446 31.0134 37.6178 31.6536C36.9907 32.2937 36.6479 33.1592 36.6663 34.055C36.6851 34.9509 37.0633 35.8014 37.7163 36.4151C37.1987 36.6949 36.7663 37.1089 36.4639 37.6136C36.1618 38.1183 36.0011 38.6954 35.999 39.2835V43.3322C35.999 43.509 36.0693 43.6786 36.1943 43.8036C36.3193 43.9286 36.4889 43.9989 36.6657 43.9989H43.3322C43.5089 43.9989 43.6786 43.9286 43.8036 43.8036C43.9286 43.6786 43.9988 43.509 43.9988 43.3322V39.2835C43.9967 38.6954 43.836 38.1183 43.5339 37.6136C43.2316 37.1088 42.7991 36.6948 42.2816 36.4151H42.2816ZM39.999 31.9992C40.5293 31.9992 41.0382 32.2099 41.4132 32.5849C41.7881 32.9599 41.9989 33.4688 41.9989 33.9991C41.9989 34.5294 41.7882 35.0384 41.4132 35.4133C41.0382 35.7882 40.5292 35.999 39.999 35.999C39.4687 35.999 38.9597 35.7883 38.5848 35.4133C38.2098 35.0383 37.9991 34.5294 37.9991 33.9991C37.9991 33.4688 38.2098 32.9598 38.5848 32.5849C38.9597 32.2099 39.4687 31.9992 39.999 31.9992ZM42.6656 42.6656H37.3324V39.2835C37.333 38.7662 37.5386 38.2704 37.9044 37.9043C38.2704 37.5385 38.7662 37.3329 39.2835 37.3323H40.7144C41.2317 37.3329 41.7275 37.5385 42.0936 37.9043C42.4594 38.2704 42.665 38.7662 42.6656 39.2835L42.6656 42.6656Z" fill="#1A4860"/>
<path d="M36.2668 4H11.7341C9.68357 4.00179 7.71783 4.81697 6.26789 6.26691C4.81794 7.71685 4.00281 9.68259 4.00098 11.7331V18.9329C4.00276 20.9835 4.81794 22.9492 6.26789 24.3991C7.71783 25.8491 9.68357 26.6642 11.7341 26.6661H16.334L18.1339 29.066C18.2598 29.2338 18.4574 29.3326 18.6672 29.3326C18.8771 29.3326 19.0747 29.2338 19.2006 29.066L21.0005 26.6661H36.2672C38.3177 26.6643 40.2834 25.8491 41.7334 24.3991C43.1833 22.9492 43.9985 20.9835 44.0003 18.9329V11.7331C43.9985 9.68259 43.1833 7.71685 41.7334 6.26691C40.2834 4.81697 38.3177 4.00183 36.2672 4H36.2668ZM42.6666 18.9329C42.6651 20.6299 41.9904 22.257 40.7905 23.4566C39.5908 24.6566 37.9637 25.3312 36.2668 25.3328H20.6672C20.4574 25.3328 20.2598 25.4316 20.1339 25.5994L18.6672 27.5547L17.2006 25.5994C17.0747 25.4316 16.8771 25.3328 16.6673 25.3328H11.7341C10.0372 25.3313 8.41008 24.6566 7.21041 23.4566C6.01045 22.257 5.3358 20.6299 5.33427 18.9329V11.7331C5.33576 10.0362 6.01045 8.4091 7.21041 7.20944C8.41008 6.00947 10.0372 5.33482 11.7341 5.3333H36.2668C37.9637 5.33479 39.5908 6.00947 40.7905 7.20944C41.9904 8.4091 42.6651 10.0362 42.6666 11.7331V18.9329Z" fill="#1A4860"/>
<path d="M26.6523 15.8663C26.6073 15.647 26.4556 15.4645 26.2475 15.3809L23.0401 14.0982L19.2349 10.293L17.9525 7.08529C17.8692 6.87726 17.687 6.72488 17.4674 6.67994C17.2478 6.635 17.0201 6.70316 16.8618 6.86178L11.5286 12.195C11.3699 12.3533 11.3018 12.581 11.3467 12.8006C11.3917 13.0202 11.544 13.2024 11.7521 13.2857L14.9595 14.5684L15.6336 15.2425L9.61825 19.4537L9.61795 19.4534C9.46706 19.559 9.36647 19.7224 9.34028 19.9049C9.31409 20.0873 9.36439 20.2721 9.47956 20.4161L12.1462 23.7494C12.2726 23.9077 12.464 23.9997 12.6667 23.9997C12.8693 23.9997 13.0607 23.9077 13.1872 23.7494L18.0537 17.6641L18.7629 18.3734L20.0456 21.5807H20.0459C20.1293 21.7888 20.3117 21.9406 20.531 21.9855C20.5757 21.9947 20.6209 21.9995 20.6665 21.9995C20.8432 21.9995 21.0129 21.9292 21.1379 21.8042L26.4711 16.4711C26.6291 16.3127 26.6973 16.0856 26.6523 15.8663L26.6523 15.8663ZM15.1722 13.2185L13.1857 12.4238L17.0894 8.52008L17.8841 10.5066L15.1722 13.2185ZM12.6663 22.2658L10.9642 20.1385L16.5903 16.1993L17.1063 16.7154L12.6663 22.2658ZM19.3328 17.0574L17.1376 14.8622L16.2755 13.9995L18.6662 11.6088L21.7236 14.6661L19.3328 17.0574ZM20.9095 20.1472L20.1148 18.1607L22.8267 15.4488L24.8132 16.2434L20.9095 20.1472Z" fill="#1A4860"/>
<path d="M31.9991 19.9996H30.6658C29.7821 20.0008 28.9348 20.3522 28.3099 20.9769C27.6852 21.6019 27.3337 22.4492 27.3325 23.3328C27.3325 23.5096 27.4028 23.6792 27.5278 23.8042C27.6527 23.9292 27.8224 23.9995 27.9992 23.9995H34.6657C34.8424 23.9995 35.0121 23.9292 35.1371 23.8042C35.2621 23.6792 35.3323 23.5096 35.3323 23.3328C35.3311 22.4492 34.9796 21.6019 34.355 20.9769C33.73 20.3522 32.8827 20.0008 31.9991 19.9996ZM28.7798 22.6662C28.9182 22.2766 29.1738 21.9391 29.5113 21.7004C29.8491 21.4617 30.2524 21.3334 30.6657 21.3329H31.999C32.4124 21.3334 32.8157 21.4617 33.1534 21.7004C33.4909 21.9391 33.7466 22.2766 33.885 22.6662H28.7798Z" fill="#1A4860"/>
<path d="M30.666 16.6663H31.9993V18.6663H30.666V16.6663Z" fill="#1A4860"/>
<path d="M26.1543 18.7638L27.0971 17.8209L28.5113 19.2351L27.5685 20.178L26.1543 18.7638Z" fill="#1A4860"/>
<path d="M34.1543 19.2354L35.5685 17.8212L36.5113 18.7641L35.0971 20.1783L34.1543 19.2354Z" fill="#1A4860"/>
<path d="M12.6665 29.3327V34.6658C12.6692 35.3759 12.8986 36.0664 13.3218 36.6366C13.745 37.2065 14.3396 37.6265 15.0186 37.8345C14.7903 38.2836 14.6698 38.7797 14.6665 39.2836V43.3324C14.6665 43.5091 14.7367 43.6788 14.8617 43.8038C14.9867 43.9288 15.1564 43.999 15.3331 43.999H21.9996C22.1764 43.999 22.346 43.9288 22.471 43.8038C22.596 43.6788 22.6663 43.5091 22.6663 43.3324V39.2836C22.6639 38.6958 22.5029 38.1194 22.2008 37.6149C21.8987 37.1105 21.4663 36.6968 20.949 36.417C21.602 35.8037 21.9802 34.9531 21.999 34.0573C22.0174 33.1614 21.6746 32.2957 21.0475 31.6558C20.4208 31.0156 19.5625 30.6549 18.6663 30.6549C17.7702 30.6549 16.912 31.0156 16.2852 31.6558C15.6581 32.2957 15.3153 33.1614 15.3337 34.0573C15.3525 34.9531 15.7307 35.8036 16.3837 36.417C16.2465 36.4908 16.1149 36.5745 15.9896 36.667C15.4608 36.6646 14.9545 36.4524 14.5817 36.0775C14.2088 35.7025 13.9995 35.1947 13.9998 34.6659V29.3327L12.6665 29.3327ZM18.6663 31.9993C19.1967 31.9993 19.7056 32.21 20.0806 32.5849C20.4555 32.9599 20.6663 33.4689 20.6663 33.9992C20.6663 34.5294 20.4555 35.0384 20.0806 35.4134C19.7056 35.7883 19.1966 35.9991 18.6663 35.9991C18.1361 35.9991 17.6271 35.7884 17.2521 35.4134C16.8772 35.0384 16.6664 34.5294 16.6664 33.9992C16.6664 33.4689 16.8771 32.9599 17.2521 32.5849C17.6271 32.21 18.1361 31.9993 18.6663 31.9993ZM15.9997 39.2836C16.0003 38.7663 16.206 38.2705 16.5718 37.9044C16.9378 37.5386 17.4336 37.333 17.9509 37.3324H19.3818C19.8991 37.333 20.3949 37.5386 20.761 37.9044C21.1267 38.2704 21.3324 38.7662 21.333 39.2836V42.6656H15.9998L15.9997 39.2836Z" fill="#1A4860"/>
</svg>
