<svg width="48" height="48" viewBox="0 0 48 48" fill="none" xmlns="http://www.w3.org/2000/svg">
<path d="M24 4C18.6956 4 13.6085 6.1071 9.85769 9.85769C6.1071 13.6085 4 18.6957 4 24C4 29.3043 6.1071 34.3915 9.85769 38.1423C13.6085 41.8929 18.6957 44 24 44C29.3043 44 34.3915 41.8929 38.1423 38.1423C41.8929 34.3915 44 29.3043 44 24C43.994 18.6977 41.8848 13.6138 38.1355 9.86454C34.3861 6.11518 29.3028 4.00594 24 4V4ZM24 42.6662C19.0494 42.6662 14.3018 40.6996 10.8009 37.199C7.30038 33.6982 5.3337 28.95 5.3337 23.9999C5.3337 19.0499 7.3003 14.3017 10.8009 10.8008C14.3017 7.30031 19.05 5.33362 24 5.33362C28.95 5.33362 33.6982 7.30023 37.1991 10.8008C40.6996 14.3017 42.6663 19.0499 42.6663 23.9999C42.6606 28.949 40.6922 33.6935 37.1928 37.1929C33.6935 40.6923 28.9491 42.6607 23.9998 42.6664L24 42.6662Z" fill="#1A4860"/>
<path d="M24.6667 29.4001V8H23.3333V29.4001C22.3209 29.6058 21.4608 30.2692 21.0051 31.1965C20.5494 32.1236 20.5494 33.2099 21.0051 34.137C21.4607 35.0644 22.3209 35.7278 23.3333 35.9334V41.3333H24.6667V35.9334C25.6791 35.7277 26.5392 35.0644 26.9949 34.137C27.4506 33.2099 27.4506 32.1236 26.9949 31.1965C26.5393 30.2692 25.6791 29.6058 24.6667 29.4001ZM24 34.6667C23.4697 34.6667 22.9607 34.456 22.5858 34.081C22.2108 33.706 22.0001 33.1971 22.0001 32.6668C22.0001 32.1365 22.2108 31.6275 22.5858 31.2526C22.9608 30.8776 23.4697 30.6669 24 30.6669C24.5303 30.6669 25.0393 30.8776 25.4142 31.2526C25.7892 31.6276 25.9999 32.1365 25.9999 32.6668C25.9999 33.1971 25.7892 33.7061 25.4142 34.081C25.0392 34.456 24.5303 34.6667 24 34.6667Z" fill="#1A4860"/>
<path d="M14.0002 20.7329V14.6663H12.6668V20.7329C11.6544 20.9385 10.7943 21.6019 10.3386 22.5293C9.88291 23.4563 9.88291 24.5426 10.3386 25.4697C10.7942 26.3971 11.6544 27.0605 12.6668 27.2661V36.6664H14.0002V27.2661C15.0126 27.0605 15.8728 26.3971 16.3284 25.4697C16.7841 24.5426 16.7841 23.4563 16.3284 22.5293C15.8728 21.6019 15.0126 20.9385 14.0002 20.7329V20.7329ZM13.3335 25.9995C12.8032 25.9995 12.2942 25.7888 11.9193 25.4138C11.5443 25.0388 11.3336 24.5298 11.3336 23.9995C11.3336 23.4693 11.5443 22.9602 11.9193 22.5853C12.2943 22.2104 12.8032 21.9996 13.3335 21.9996C13.8638 21.9996 14.3728 22.2103 14.7477 22.5853C15.1227 22.9603 15.3334 23.4693 15.3334 23.9995C15.3334 24.5298 15.1227 25.0388 14.7477 25.4138C14.3727 25.7887 13.8638 25.9995 13.3335 25.9995Z" fill="#1A4860"/>
<path d="M35.3334 14.7336V10.667H34.0001V14.7336C32.9876 14.9393 32.1275 15.6026 31.6718 16.53C31.2162 17.4571 31.2162 18.5434 31.6718 19.4705C32.1275 20.3979 32.9876 21.0612 34.0001 21.2669V32.0005H35.3334V21.2669C36.3459 21.0612 37.206 20.3979 37.6617 19.4705C38.1173 18.5434 38.1173 17.4571 37.6617 16.53C37.206 15.6026 36.3459 14.9392 35.3334 14.7336V14.7336ZM34.6667 20.0002C34.1364 20.0002 33.6274 19.7895 33.2525 19.4145C32.8776 19.0395 32.6668 18.5306 32.6668 18.0003C32.6668 17.47 32.8775 16.961 33.2525 16.586C33.6275 16.2111 34.1365 16.0003 34.6667 16.0003C35.197 16.0003 35.706 16.2111 36.081 16.586C36.4559 16.961 36.6667 17.47 36.6667 18.0003C36.6667 18.5306 36.456 19.0396 36.081 19.4145C35.706 19.7894 35.197 20.0002 34.6667 20.0002Z" fill="#1A4860"/>
<path d="M34 33.333H35.3333V36.6663H34V33.333Z" fill="#1A4860"/>
<path d="M12.6667 10.6665H14.0001V13.3331H12.6667V10.6665Z" fill="#1A4860"/>
</svg>
