<svg width="48" height="48" viewBox="0 0 48 48" fill="none" xmlns="http://www.w3.org/2000/svg">
<path d="M5.33341 31.334C4.96526 31.334 4.66675 31.6325 4.66675 32.0007V43.334C4.66675 43.5108 4.73699 43.6804 4.86199 43.8054C4.98699 43.9304 5.15663 44.0007 5.33341 44.0007H10.6667C10.8435 44.0007 11.0132 43.9304 11.1382 43.8054C11.2632 43.6804 11.3334 43.5108 11.3334 43.334V32.0007C11.3334 31.8239 11.2632 31.6542 11.1382 31.5292C11.0132 31.4042 10.8435 31.334 10.6667 31.334H5.33341ZM10.0001 42.6673H6.00008V32.6673H10.0001V42.6673Z" fill="#1A4860"/>
<path d="M35.3334 43.3339V26.6672C35.3334 26.4904 35.2632 26.3207 35.1382 26.1957C35.0132 26.0707 34.8435 26.0005 34.6668 26.0005H29.3334C28.9653 26.0005 28.6667 26.299 28.6667 26.6672V43.3339C28.6667 43.5106 28.737 43.6803 28.862 43.8053C28.987 43.9303 29.1566 44.0005 29.3334 44.0005H34.6668C34.8435 44.0005 35.0132 43.9303 35.1382 43.8053C35.2632 43.6803 35.3334 43.5106 35.3334 43.3339ZM34.0001 42.6672H30.0001V27.3338H34.0001V42.6672Z" fill="#1A4860"/>
<path d="M21.3334 29.334C20.9653 29.334 20.6667 29.6325 20.6667 30.0007V43.334C20.6667 43.5108 20.737 43.6804 20.862 43.8054C20.987 43.9304 21.1566 44.0007 21.3334 44.0007H26.6667C26.8435 44.0007 27.0132 43.9304 27.1382 43.8054C27.2632 43.6804 27.3334 43.5108 27.3334 43.334V30.0007C27.3334 29.8239 27.2632 29.6542 27.1382 29.5292C27.0132 29.4042 26.8435 29.334 26.6667 29.334H21.3334ZM26.0001 42.6673H22.0001V30.6673H26.0001V42.6673Z" fill="#1A4860"/>
<path d="M13.3334 21.334C12.9653 21.334 12.6667 21.6325 12.6667 22.0007V43.334C12.6667 43.5108 12.737 43.6804 12.862 43.8054C12.987 43.9304 13.1566 44.0006 13.3334 44.0006H18.6667C18.8435 44.0006 19.0132 43.9304 19.1382 43.8054C19.2632 43.6804 19.3334 43.5108 19.3334 43.334V22.0007C19.3334 21.8239 19.2632 21.6542 19.1382 21.5292C19.0132 21.4042 18.8435 21.334 18.6667 21.334H13.3334ZM18.0001 42.6673H14.0001V22.6673H18.0001V42.6673Z" fill="#1A4860"/>
<path d="M43.3334 43.3339V35.3339C43.3334 35.1571 43.2632 34.9875 43.1382 34.8625C43.0132 34.7375 42.8435 34.6672 42.6668 34.6672H37.3334C36.9653 34.6672 36.6667 34.9658 36.6667 35.3339V43.3339C36.6667 43.5107 36.737 43.6804 36.862 43.8054C36.987 43.9304 37.1566 44.0006 37.3334 44.0006H42.6668C42.8435 44.0006 43.0132 43.9304 43.1382 43.8054C43.2632 43.6804 43.3334 43.5107 43.3334 43.3339ZM42.0001 42.6673H38.0001V36.0006H42.0001V42.6673Z" fill="#1A4860"/>
<path d="M7.95343 26.911L16.0258 6.42036L23.3871 23.5967C23.4835 23.8214 23.6954 23.9753 23.9389 23.9979C24.1826 24.0203 24.419 23.9075 24.5547 23.7039L31.9999 12.5336L36.7785 19.7014C36.9017 19.8878 37.1101 20 37.3333 20.0003H39.9999V21.3336C39.9999 21.594 40.1514 21.8306 40.388 21.9392C40.6246 22.0479 40.9029 22.0092 41.1005 21.8395L43.7672 19.5535C43.927 19.4166 44.0127 19.2119 43.9985 19.0017C43.9839 18.7916 43.8711 18.6008 43.694 18.4869L41.0273 16.7729C40.8223 16.641 40.5613 16.6315 40.3473 16.7485C40.1333 16.8651 39.9999 17.0895 39.9999 17.3336V18.6669H37.6898L32.5565 10.9633C32.4259 10.7883 32.2202 10.6853 32.0021 10.6853C31.7836 10.6853 31.5779 10.7883 31.4473 10.9633L24.128 21.9393L16.6128 4.40406C16.5083 4.15407 16.261 3.99365 15.9899 4.00019C15.7199 4.00436 15.4789 4.17132 15.38 4.42281L6.87947 26H4V27.3333H7.33333C7.60715 27.333 7.85298 27.1654 7.95327 26.9107L7.95343 26.911ZM41.3332 18.5552L42.2199 19.1252L41.3332 19.8844V18.5552Z" fill="#1A4860"/>
</svg>
