<svg width="48" height="48" viewBox="0 0 48 48" fill="none" xmlns="http://www.w3.org/2000/svg">
<path d="M15.4362 23.0009H26.1882C28.9211 23.0009 31.445 24.4867 32.774 26.8799C33.062 27.3981 33.7145 27.5864 34.235 27.2984C34.754 27.0104 34.9415 26.3564 34.6535 25.8374C33.0508 22.9491 30.0883 21.1109 26.8228 20.8949C29.0525 19.1197 30.4888 16.3889 30.4888 13.3244C30.4888 7.98888 26.1471 3.64795 20.8124 3.64795C15.4769 3.64795 11.136 7.98964 11.136 13.3244C11.136 16.3822 12.5663 19.1091 14.7884 20.8844C9.75515 21.2196 5.76001 25.4106 5.76001 30.5272V36.9788C5.76001 37.572 6.24151 38.0543 6.83552 38.0543H24.0391C24.6323 38.0543 25.1146 37.5728 25.1146 36.9788C25.1146 36.3855 24.6331 35.9033 24.0391 35.9033H7.91034V30.5273C7.91034 26.3776 11.2861 23.0011 15.4365 23.0011L15.4362 23.0009ZM13.286 13.3245C13.286 9.17404 16.6625 5.79829 20.8122 5.79829C24.9627 5.79829 28.3384 9.1748 28.3384 13.3245C28.3384 17.475 24.9619 20.8507 20.8122 20.8507C16.6618 20.8507 13.286 17.4742 13.286 13.3245V13.3245ZM41.2412 35.9037H40.0577C39.9182 35.219 39.6445 34.5837 39.2709 34.019L40.1132 33.1767C40.5339 32.756 40.5339 32.0757 40.1132 31.6565C39.6924 31.2372 39.0122 31.2357 38.5929 31.6565L37.7507 32.4987C37.1874 32.1245 36.5507 31.8514 35.8659 31.7119L35.8652 30.5277C35.8652 29.9344 35.3837 29.4522 34.7897 29.4522C34.1964 29.4522 33.7142 29.9337 33.7142 30.5277V31.7112C33.0294 31.8507 32.3942 32.1244 31.8294 32.4979L30.9872 31.6557C30.5664 31.235 29.8862 31.235 29.4669 31.6557C29.0477 32.0765 29.0462 32.7567 29.4669 33.176L30.3092 34.0182C29.9349 34.5815 29.6619 35.2182 29.5224 35.903L28.3389 35.9037C27.7457 35.9037 27.2634 36.3852 27.2634 36.9792C27.2634 37.5725 27.7449 38.0547 28.3389 38.0547H29.5224C29.6619 38.7395 29.9357 39.3747 30.3092 39.9395L29.4669 40.7817C29.0462 41.2025 29.0462 41.8827 29.4669 42.302C29.8877 42.7227 30.5679 42.7227 30.9872 42.302L31.8294 41.4597C32.3927 41.834 33.0294 42.107 33.7142 42.2465L33.7149 43.4307C33.7149 44.024 34.1964 44.5062 34.7904 44.5062C35.3837 44.5062 35.8659 44.0247 35.8659 43.4307V42.2472C36.5507 42.1077 37.1859 41.834 37.7507 41.4605L38.5929 42.3027C39.0137 42.7235 39.6939 42.7235 40.1132 42.3027C40.5339 41.8835 40.5339 41.2017 40.1132 40.7825L39.2709 39.9402C39.6452 39.377 39.9182 38.7402 40.0577 38.0555L41.2412 38.0547C41.8345 38.0547 42.3167 37.5732 42.3167 36.9792C42.3167 36.386 41.8352 35.9037 41.2412 35.9037V35.9037ZM34.7904 40.2049C33.0121 40.2049 31.5646 38.7574 31.5646 36.9791C31.5646 35.2008 33.0121 33.7533 34.7904 33.7533C36.5687 33.7533 38.0162 35.2008 38.0162 36.9791C38.0162 38.7574 36.5687 40.2049 34.7904 40.2049Z" fill="#1A4860"/>
</svg>
