<svg width="88" height="88" viewBox="0 0 88 88" fill="none" xmlns="http://www.w3.org/2000/svg">
<path d="M63.25 17.875C53.394 17.875 45.375 25.894 45.375 35.75C45.375 45.606 53.394 53.625 63.25 53.625C73.106 53.625 81.125 45.606 81.125 35.75C81.125 25.894 73.106 17.875 63.25 17.875ZM63.25 50.875C54.9106 50.875 48.125 44.0894 48.125 35.75C48.125 27.4106 54.9106 20.625 63.25 20.625C71.5894 20.625 78.375 27.4106 78.375 35.75C78.375 44.0894 71.5894 50.875 63.25 50.875Z" fill="white"/>
<path d="M86.625 35.75C86.625 23.3255 76.8735 13.1629 64.625 12.4451V5.5C64.625 3.22575 62.7743 1.375 60.5 1.375H13.1808L1.375 13.1808V77C1.375 79.2743 3.22575 81.125 5.5 81.125H56.5139C57.1533 84.2586 59.9294 86.625 63.25 86.625C67.0409 86.625 70.125 83.5409 70.125 79.75V64.372C71.7214 63.8028 72.875 62.2903 72.875 60.5V57.0267C80.971 53.35 86.625 45.2059 86.625 35.75ZM12.375 6.06925V12.375H6.06925L12.375 6.06925ZM4.125 77V15.125H15.125V4.125H60.5C61.259 4.125 61.875 4.74238 61.875 5.5V12.4451C49.6265 13.1629 39.875 23.3255 39.875 35.75C39.875 45.2059 45.529 53.35 53.625 57.0267V60.5C53.625 62.2903 54.7786 63.8028 56.375 64.372V78.375H5.5C4.741 78.375 4.125 77.7576 4.125 77ZM63.25 83.875C60.9757 83.875 59.125 82.0243 59.125 79.75V64.625H67.375V79.75C67.375 82.0243 65.5243 83.875 63.25 83.875ZM70.125 60.5C70.125 61.2576 69.509 61.875 68.75 61.875H57.75C56.991 61.875 56.375 61.2576 56.375 60.5V58.0896C58.5503 58.7606 60.8575 59.125 63.25 59.125C65.6425 59.125 67.9497 58.7606 70.125 58.0896V60.5ZM63.25 56.375C51.8774 56.375 42.625 47.1226 42.625 35.75C42.625 24.3774 51.8774 15.125 63.25 15.125C74.6226 15.125 83.875 24.3774 83.875 35.75C83.875 47.1226 74.6226 56.375 63.25 56.375Z" fill="white"/>
<path d="M59.125 31.625H61.875V45.375H59.125V48.125H67.375V45.375H64.625V31.625H67.375V28.875H59.125V31.625Z" fill="white"/>
<path d="M63.25 26.125C64.0094 26.125 64.625 25.5094 64.625 24.75C64.625 23.9906 64.0094 23.375 63.25 23.375C62.4906 23.375 61.875 23.9906 61.875 24.75C61.875 25.5094 62.4906 26.125 63.25 26.125Z" fill="white"/>
<path d="M26.125 6.875H17.875V15.125H26.125V6.875ZM23.375 12.375H20.625V9.625H23.375V12.375Z" fill="white"/>
<path d="M37.125 6.875H28.875V15.125H37.125V6.875ZM34.375 12.375H31.625V9.625H34.375V12.375Z" fill="white"/>
<path d="M48.125 6.875H39.875V15.125H48.125V6.875ZM45.375 12.375H42.625V9.625H45.375V12.375Z" fill="white"/>
<path d="M39.875 72.875H37.125V48.125H28.875V72.875H26.125V42.625H17.875V72.875H15.125V59.125H6.875V75.625H48.125V56.375H39.875V72.875ZM12.375 72.875H9.625V61.875H12.375V72.875ZM31.625 50.875H34.375V72.875H31.625V50.875ZM20.625 45.375H23.375V72.875H20.625V45.375ZM42.625 59.125H45.375V72.875H42.625V59.125Z" fill="white"/>
<path d="M37.125 17.875H6.875V20.625H37.125V17.875Z" fill="white"/>
<path d="M37.125 23.375H34.375V26.125H37.125V23.375Z" fill="white"/>
<path d="M31.625 23.375H6.875V26.125H31.625V23.375Z" fill="white"/>
<path d="M37.125 28.875H6.875V31.625H37.125V28.875Z" fill="white"/>
<path d="M37.125 34.375H6.875V37.125H37.125V34.375Z" fill="white"/>
</svg>
