<svg width="88" height="88" viewBox="0 0 88 88" fill="none" xmlns="http://www.w3.org/2000/svg">
<g clip-path="url(#clip0_1_16)">
<path d="M56.1322 64.0612C56.1322 64.8895 56.8058 65.5631 57.634 65.5631H70.7754C70.8527 65.5631 70.9263 65.5594 71.0036 65.5447C71.0662 65.5336 71.114 65.4968 71.1729 65.4821C71.2723 65.4527 71.3643 65.4232 71.4564 65.379C71.5447 65.3349 71.6183 65.2796 71.692 65.2207C71.7656 65.1619 71.8355 65.103 71.8981 65.0293C71.9607 64.9557 72.0122 64.8747 72.0601 64.7901C72.1079 64.7091 72.1484 64.6281 72.1779 64.5361C72.211 64.4404 72.2257 64.3447 72.2368 64.2416C72.2441 64.179 72.2736 64.1238 72.2736 64.0612C72.2736 64.0207 72.2552 63.9839 72.2515 63.9434C72.2478 63.9029 72.2625 63.8698 72.2552 63.8293C71.0956 56.3568 65.309 50.5591 57.8586 49.4033C57.8218 49.3996 57.785 49.4143 57.7482 49.4107C57.7077 49.407 57.6709 49.3849 57.6304 49.3849C57.5457 49.3849 57.4721 49.418 57.3911 49.4327C57.3322 49.4438 57.2733 49.4511 57.2181 49.4696C57.0745 49.51 56.9494 49.5726 56.8279 49.6499C56.7874 49.6757 56.7506 49.6978 56.7101 49.7272C56.607 49.8082 56.5224 49.9002 56.4451 50.0033C56.3972 50.0622 56.3567 50.1211 56.3199 50.1874C56.2684 50.2831 56.2352 50.3788 56.2058 50.4855C56.1874 50.5444 56.1506 50.5923 56.1432 50.6548C56.1359 50.6953 56.1506 50.7358 56.1469 50.7763C56.1432 50.8131 56.1248 50.8463 56.1248 50.8868V64.0612H56.1322ZM68.8796 62.5594H59.1359V52.7862C63.8661 54.1334 67.5287 57.8108 68.8796 62.5594Z" fill="white"/>
<path d="M86.8431 34.0312H83.913V17.2346C83.913 16.7303 83.5044 16.3254 83.0038 16.3254H81.1449C80.6406 16.3254 80.2357 16.734 80.2357 17.2346V34.0275H77.1657V22.0494C77.1657 21.5451 76.7571 21.1402 76.2565 21.1402H74.3938C73.8895 21.1402 73.4846 21.5488 73.4846 22.0494V34.0312H70.4146V16.0051C70.4146 15.5008 70.006 15.0959 69.5054 15.0959H67.6465C67.1422 15.0959 66.7373 15.5045 66.7373 16.0051V34.0312H63.6673V22.0494C63.6673 21.5451 63.2587 21.1402 62.7581 21.1402H60.8991C60.3948 21.1402 59.9899 21.5488 59.9899 22.0494V34.0312H55.488C55.245 34.0312 55.0021 34.0901 54.7886 34.2042L33.387 45.4903C32.8459 44.3713 32.2716 42.678 33.1146 41.4964C33.1183 41.4816 33.122 41.4632 33.1293 41.4485C34.8336 39.8546 36.192 37.738 36.9687 35.2055C38.0141 34.5392 38.8349 33.4202 39.3466 32.1171V32.3968C39.3466 32.9931 39.8288 33.479 40.4252 33.479C40.4767 33.479 40.5282 33.4754 40.5761 33.468C40.6276 33.4754 40.6755 33.479 40.727 33.479H44.6584C45.2547 33.479 45.7369 32.9968 45.7369 32.3968V21.7954C45.7369 21.1991 45.2547 20.7132 44.6584 20.7132H41.5037V20.0874C41.5037 11.4627 34.4876 4.45032 25.8666 4.45032C17.2419 4.45032 10.2295 11.4664 10.2295 20.0874V20.7095H7.07856C6.48223 20.7095 6.00001 21.1917 6.00001 21.7917V32.3931C6.00001 32.9895 6.48223 33.4754 7.07856 33.4754H10.2295L10.1375 36.273C10.1375 36.8693 10.6234 37.3552 11.2197 37.3552H15.2652C15.9462 38.7577 16.8223 39.9871 17.8456 41.0289C17.8714 41.073 17.8751 41.1209 17.9045 41.1614C18.8358 42.4682 17.7978 44.7578 17.0395 46.0056C13.7008 46.2007 1.44288 48.0229 0.00358803 64.1569C-0.0589898 65.3422 0.629366 66.6269 1.89565 67.6833C2.16436 67.9079 2.50302 68.033 2.8564 68.033H37.9515C38.7319 76.897 46.0976 83.891 55.142 83.891C63.7519 83.891 70.9484 77.7289 72.2588 69.2367C72.3251 68.8024 72.1999 68.3606 71.9128 68.0293C71.6257 67.6944 71.2097 67.503 70.7717 67.503H54.1812V50.883C54.1812 50.445 53.9898 50.029 53.6585 49.7419C53.3272 49.4585 52.8965 49.3333 52.4511 49.3959C50.0621 49.764 47.8719 50.6732 45.921 51.9174C43.3295 48.8953 40.1859 47.375 37.5944 46.6572L55.8524 37.0276H86.8395C87.6677 37.0276 88.3413 36.3539 88.3413 35.5257C88.345 34.7048 87.6714 34.0312 86.8431 34.0312ZM41.5074 22.8776H43.5798V31.322H41.5074V22.8776ZM10.2295 31.3183H8.15711V22.874H10.2295V31.3183ZM36.6815 27.0519C31.7857 26.4998 26.9378 22.3623 26.8863 22.3181C26.6028 22.0715 26.2531 21.95 25.9034 21.95C25.4948 21.95 25.0899 22.1157 24.7954 22.4396C24.7586 22.4801 21.2432 26.2532 15.0701 26.9562C14.6284 25.5942 14.3818 23.3598 15.1143 21.0739C15.9094 18.6039 17.6505 16.7303 20.2862 15.5008C27.9648 11.9228 31.8998 17.2051 32.0581 17.426C32.2201 17.6542 32.452 17.8383 32.7097 17.9487C33.3391 18.2137 38.5478 20.6359 36.6815 27.0519ZM25.8703 6.61477C33.3023 6.61477 39.3503 12.6591 39.3503 20.0911V20.7574C38.2239 17.9929 36.0079 16.1708 34.2263 15.3352C32.971 13.8701 27.7182 8.72401 19.0199 12.7732C15.7806 14.2824 13.5314 16.7082 12.4234 19.7708C12.5964 12.4897 18.5487 6.61477 25.8703 6.61477ZM12.3425 28.2667L12.3388 28.2704V28.252C12.3425 28.2593 12.3425 28.263 12.3425 28.2667ZM12.2983 35.1981L12.3204 31.9109C12.7106 33.0189 13.3731 34.0975 14.2787 34.841C14.3118 34.9662 14.3707 35.0729 14.4075 35.1944H12.2983V35.1981ZM22.9733 37.3589C23.1979 37.657 23.5034 37.8779 23.9046 37.8779H26.3636C27.0372 37.8779 27.5857 37.3294 27.5857 36.6558V35.8607C27.5857 35.1871 27.0372 34.6386 26.3636 34.6386H23.9046C23.4887 34.6386 23.1758 34.8815 22.9549 35.1981H17.5695C17.3671 34.6828 17.1904 34.149 17.0542 33.5895C16.9622 33.2103 16.7266 32.8827 16.4026 32.6766C15.3977 32.0434 14.9045 30.6336 14.9081 29.9931C20.4555 29.4998 24.2617 26.8826 25.977 25.4323C27.9243 26.89 32.268 29.7391 36.8361 30.0851C36.803 30.8434 36.1699 32.3416 35.095 32.8091C34.6717 32.9931 34.3588 33.3576 34.241 33.803C33.0263 38.4227 29.5808 41.5258 25.6715 41.5258C22.9291 41.5258 20.3929 39.9098 18.707 37.3589H22.9733ZM52.683 70.5104H68.9165C67.1974 76.6172 61.6611 80.8872 55.1457 80.8872C47.2388 80.8872 40.808 74.4417 40.808 66.5164C40.808 60.1151 45.1627 54.4794 51.1849 52.7493V69.0085C51.1812 69.8404 51.8548 70.5104 52.683 70.5104ZM43.532 53.7542C40.381 56.6328 38.327 60.6231 37.9368 65.0293H3.44905C3.10303 64.6575 3.00732 64.3925 2.99996 64.3741C4.35827 49.1345 16.4505 48.9762 17.8014 48.9873C17.8199 48.9873 17.8346 49.002 17.853 49.002C18.3131 49.002 18.7622 48.7922 19.0567 48.3983C19.1634 48.2584 20.7905 46.002 21.1696 43.4326C22.5794 44.1136 24.096 44.5259 25.6789 44.5259C27.1034 44.5259 28.4691 44.2093 29.7501 43.6682C30.0188 46.1308 31.4692 48.24 31.5649 48.3726C31.6238 48.4572 31.7232 48.4867 31.7968 48.5566C31.9072 48.656 32.0029 48.7591 32.1318 48.8216C32.2532 48.8805 32.371 48.8953 32.4999 48.921C32.5993 48.9394 32.6876 48.9983 32.787 48.9983C32.8275 48.9983 32.8643 48.9726 32.9048 48.9689C32.9379 48.9652 32.9747 48.9873 33.0078 48.9799C34.068 48.9983 39.608 49.3259 43.532 53.7542Z" fill="white"/>
</g>
<defs>
<clipPath id="clip0_1_16">
<rect width="88" height="88" fill="white"/>
</clipPath>
</defs>
</svg>
