<svg width="88" height="88" viewBox="0 0 88 88" fill="none" xmlns="http://www.w3.org/2000/svg">
<path d="M84.9494 15.0909C84.0937 14.8454 83.2562 14.5674 82.4114 14.2894L81.2452 13.9139L80.6279 12.4554L81.1839 11.2857C81.5593 10.4842 81.9384 9.68271 82.415 8.73321C82.7218 7.90646 82.5594 7.16636 81.9348 6.53817L81.0358 5.6681C80.5846 5.23487 80.1297 4.79803 79.6748 4.32148C78.8336 3.48029 77.9816 3.68968 77.4834 3.97489C76.2811 4.5778 75.1114 5.17711 73.9525 5.7728C73.4724 5.57063 72.9922 5.37206 72.494 5.18072L71.1257 1.45493C70.8802 0.588472 70.2051 0.0722051 69.2809 0.0722051C68.223 0.108308 67.1616 0.104697 66.0533 0.0722051C65.176 0.0722051 64.5009 0.588472 64.2806 1.3719C64.0099 2.14088 63.7499 2.92431 63.49 3.71134L62.9882 5.20238C62.6091 5.3504 62.2553 5.48398 61.8834 5.61756C61.804 5.64644 61.6488 5.70782 61.508 5.76919L57.9627 4.10125H57.9591C56.0493 1.95676 54.7207 0.480164 54.7207 0.480164C54.4427 0.176903 54.0492 0 53.634 0H7.10862C6.30714 0 5.65369 0.653456 5.65369 1.45493V50.8938H1.5741C0.761788 50.8938 0.317726 51.3415 0.317726 52.1502V56.5908C0.317726 57.4247 0.740126 57.8471 1.5741 57.8471C1.80876 57.8471 2.05426 57.8471 2.07592 57.8291C2.10119 57.8905 2.10119 58.136 2.10119 58.3742V61.396C2.10119 62.3166 2.54886 62.7643 3.46948 62.7643C3.53808 62.7643 3.61028 62.7643 3.66804 62.7643C3.66804 62.8221 3.66804 62.8943 3.66804 62.9629C3.66804 63.2156 3.66443 63.4683 3.66082 63.7282C3.6536 64.2337 3.64638 64.7427 3.66082 65.2734C3.04347 65.2409 2.42612 65.2409 1.82681 65.2734C0.787059 65.2734 0.570444 65.9377 0.570444 66.4937V80.4004C0.570444 81.2127 1.01812 81.6568 1.82681 81.6568H5.65008V85.1876C5.65369 85.9927 6.30714 86.6462 7.10862 86.6462H70.9668C71.7719 86.6462 72.4218 85.9927 72.4218 85.1912V76.0067C72.7684 76.1006 73.1077 76.2197 73.4832 76.2197C75.7504 76.2197 77.5953 74.3749 77.5953 72.1077C77.5953 70.9018 77.0537 69.844 76.227 69.0931L80.1261 59.7353C80.1983 59.7389 80.2633 59.7786 80.3355 59.7786C82.6027 59.7786 84.4475 57.9338 84.4475 55.6665C84.4475 53.3993 82.6027 51.5545 80.3355 51.5545C78.0682 51.5545 76.2234 53.3993 76.2234 55.6665C76.2234 56.8724 76.7649 57.9302 77.5917 58.6811L73.6926 68.0389C73.6204 68.0353 73.5554 67.9956 73.4832 67.9956C73.1077 67.9956 72.7684 68.1147 72.4218 68.2086V32.4309C72.4507 32.3298 72.4795 32.2288 72.5229 32.1132C73.0102 31.9219 73.5193 31.7161 73.9886 31.5139C73.9886 31.5139 73.9886 31.5139 73.9922 31.5139C74.6746 31.8569 75.3822 32.1854 76.0898 32.514L77.5917 33.2216C78.6711 33.7667 79.4257 33.2432 79.8084 32.8606C80.5593 32.0735 81.3102 31.3262 82.1153 30.5536C82.4439 30.2251 82.9312 29.5175 82.4402 28.3189C82.0684 27.6293 81.7146 26.9289 81.368 26.2393C81.1261 25.7556 80.8842 25.279 80.6496 24.8277L81.2777 23.3295C81.8626 23.1381 82.4438 22.9287 83.0215 22.723C83.6858 22.4847 84.3501 22.2464 85.2418 21.9431C85.9566 21.5821 86.3321 20.9684 86.3321 20.1163C86.296 19.0946 86.296 18.0332 86.3321 16.9646C86.3285 16.0656 85.8447 15.3905 84.9494 15.0909ZM80.3318 54.2983C81.0864 54.2983 81.7037 54.912 81.7037 55.6702C81.7037 56.4247 81.09 57.0421 80.3318 57.0421C79.5773 57.0421 78.96 56.4283 78.96 55.6702C78.9636 54.912 79.5773 54.2983 80.3318 54.2983ZM2.5597 55.6268C2.55609 55.6268 2.54886 55.6268 2.54164 55.6268C2.57775 54.8145 2.57775 54.0058 2.54886 53.1177H2.55248C7.90649 53.1899 13.376 53.1899 18.795 53.1177C18.8022 53.1177 18.8059 53.1177 18.8131 53.1177C18.8131 53.1321 18.8131 53.1502 18.8131 53.1719V55.6124C18.8131 55.6196 18.8131 55.6232 18.8131 55.6304H2.5597V55.6268ZM26.4776 62.7643C31.0446 62.7643 34.7596 66.5118 34.7596 71.1184C34.7596 75.7251 31.0121 79.4726 26.4054 79.4726C24.1707 79.4581 22.0731 78.5772 20.5027 76.9959C18.9286 75.411 18.0694 73.3135 18.0874 71.0823C18.0874 66.4179 21.7699 62.7643 26.4776 62.7643ZM17.5206 65.2373L5.88835 65.2337V62.7643L19.842 62.7607C18.9178 63.4828 18.1488 64.3059 17.5206 65.2373ZM20.6254 60.544H20.6218C17.8888 60.5079 15.1559 60.5079 12.4265 60.5079C9.72966 60.5079 7.03641 60.5079 4.37926 60.544C4.3576 60.544 4.33955 60.5404 4.32872 60.544C4.32872 60.5332 4.32872 60.5151 4.32872 60.4971C4.36482 59.6884 4.36482 58.8472 4.32872 58.0168C4.32872 58.0096 4.32872 58.006 4.32872 57.9988C9.71522 58.0349 15.1812 58.0349 20.6399 58.0024C20.5965 58.8255 20.5965 59.6595 20.6254 60.544ZM7.40105 67.4685C8.92458 67.4613 10.4553 67.4613 11.9861 67.4685C13.4663 67.4757 14.9429 67.4865 16.4159 67.4649C16.109 68.2555 15.9068 69.1003 15.8238 69.974C15.8129 69.974 15.7949 69.974 15.7768 69.974H2.81602C2.81241 69.974 2.80519 69.974 2.79797 69.974C2.83407 69.1436 2.83407 68.2988 2.79797 67.4649C2.81241 67.4649 2.82324 67.4613 2.84852 67.4613C4.35038 67.4829 5.87391 67.4757 7.40105 67.4685ZM2.79436 72.2304H15.766C15.8491 73.133 16.0909 73.9886 16.34 74.7034C11.8308 74.7034 7.35773 74.7034 2.85213 74.7395C2.83046 74.7395 2.81241 74.7395 2.79797 74.7395C2.79797 74.7287 2.79797 74.7143 2.79797 74.6998C2.82324 74.133 2.81602 73.5698 2.80519 73.003C2.79797 72.7503 2.79436 72.4903 2.79436 72.2304ZM2.44778 67.4793L2.79797 67.4035C2.79075 67.4251 2.76548 67.454 2.74021 67.4685L2.44778 67.4793ZM2.84852 79.4726C2.82685 79.4726 2.8088 79.4726 2.79436 79.4726C2.79436 79.4617 2.79436 79.4509 2.79436 79.4365C2.81963 78.8697 2.81241 78.3065 2.80158 77.7397C2.79797 77.4942 2.79436 77.245 2.79797 76.9634H17.4484C17.4989 76.9634 17.5134 76.9634 17.5639 77.032C17.9105 77.5303 18.2824 78.0537 18.7481 78.4798C18.9539 78.6567 19.0297 78.848 19.0297 79.1657V79.2668C19.0297 79.339 19.0297 79.4112 19.0297 79.4726C18.9647 79.4726 18.8781 79.4726 18.795 79.4726H7.10862C6.15551 79.4726 5.20962 79.4581 4.26735 79.4581C3.7944 79.4581 3.32146 79.4617 2.84852 79.4726ZM69.5083 83.7327H8.56355V81.6568H20.0297C20.8493 81.6568 21.2861 81.2091 21.2789 80.4329C21.2861 80.3896 21.2933 80.3499 21.2969 80.3102C23.214 81.238 25.0299 81.7001 26.7773 81.7001C27.8748 81.7001 28.9471 81.516 30.0013 81.155C32.9364 80.1441 35.2794 77.8804 36.4239 74.9417C37.2687 72.7683 37.3084 69.8982 36.525 67.6201C35.0701 63.4033 31.0627 60.544 26.5499 60.5043C25.3079 60.5043 24.0696 60.5043 22.8349 60.5404C22.8132 60.5404 22.7952 60.5404 22.7807 60.5404C22.7807 60.5259 22.7807 60.5079 22.7807 60.4862V57.0637C22.7807 56.2189 22.3331 55.7712 21.4883 55.7712C21.2753 55.7712 21.055 55.7712 21.055 55.8037C21.0334 55.746 21.0334 55.5294 21.0334 55.3163V52.1863C21.0334 51.3054 20.6326 50.8938 19.777 50.8938H8.56355V2.91348H52.9841C53.7748 3.79438 55.5547 5.78363 57.6739 8.17001L69.0606 21.0009C69.2267 21.2103 69.3783 21.3908 69.5083 21.5388V26.1563C69.5083 26.1599 69.5083 26.1635 69.5083 26.1671V67.8115L65.0641 64.8474C65.1435 64.5297 65.259 64.2265 65.259 63.8835C65.259 61.6162 63.4142 59.7714 61.1469 59.7714C58.8797 59.7714 57.0349 61.6162 57.0349 63.8835C57.0349 64.3853 57.1576 64.851 57.3201 65.2987L50.8433 69.9812C50.2367 69.6274 49.5688 69.3675 48.8143 69.3675C46.5471 69.3675 44.7022 71.2123 44.7022 73.4796C44.7022 75.7468 46.5471 77.5916 48.8143 77.5916C51.0815 77.5916 52.9264 75.7468 52.9264 73.4796C52.9264 72.9777 52.8036 72.512 52.6412 72.0679L59.118 67.3854C59.7245 67.7392 60.3924 67.9992 61.1469 67.9992C62.0603 67.9992 62.8618 67.6418 63.5478 67.1363L69.5625 71.1473C69.483 71.465 69.3675 71.7683 69.3675 72.1113C69.3675 72.5373 69.4902 72.9272 69.6094 73.3135C69.548 73.4759 69.5047 73.6492 69.5047 73.837V83.7327H69.5083ZM62.5225 63.8871C62.5225 64.6416 61.9087 65.259 61.1506 65.259C60.396 65.259 59.7787 64.6452 59.7787 63.8871C59.7787 63.1326 60.3924 62.5152 61.1506 62.5152C61.9087 62.5188 62.5225 63.1326 62.5225 63.8871ZM50.1898 73.4796C50.1898 74.2341 49.5761 74.8514 48.8179 74.8514C48.0634 74.8514 47.446 74.2377 47.446 73.4796C47.446 72.725 48.0598 72.1077 48.8179 72.1077C49.5761 72.1077 50.1898 72.7214 50.1898 73.4796ZM73.4832 70.7394C74.2377 70.7394 74.8551 71.3531 74.8551 72.1113C74.8551 72.8658 74.2413 73.4832 73.4832 73.4832C72.7286 73.4832 72.1113 72.8694 72.1113 72.1113C72.1113 71.3531 72.725 70.7394 73.4832 70.7394ZM71.9958 19.9394C71.9705 19.9142 71.6997 19.6362 71.2882 19.1235L65.324 12.4012C66.0388 12.1449 66.8367 11.9572 67.8006 11.903C71.5156 11.903 74.5374 14.9248 74.5374 18.6398C74.5374 18.8564 74.5374 19.0622 74.4363 19.4593C74.263 21.0189 73.5085 22.398 72.4254 23.4486V20.9684C72.4218 20.5821 72.2665 20.2102 71.9958 19.9394ZM82.0323 19.9792C81.368 20.2174 80.7037 20.4557 79.812 20.759C79.191 21.0731 78.895 21.5496 78.6892 21.9684L77.7758 24.149C77.5772 24.7447 77.6133 25.2826 77.9058 25.8747C78.1946 26.4199 78.4798 26.9831 78.7614 27.5463C79.0141 28.0517 79.2704 28.5607 79.5123 29.0156C79.0719 29.4453 78.6459 29.8713 78.2235 30.3045L77.3137 29.8749C76.6277 29.5572 75.949 29.2395 75.245 28.8929C75.1872 28.8604 74.9778 28.7557 74.9165 28.7268C74.3063 28.4669 73.707 28.4669 73.0608 28.7376C72.8478 28.8315 72.6384 28.9109 72.4146 29.0012V27.0011C75.097 25.5317 76.9671 22.9179 77.2559 20.0802C77.4364 19.5279 77.4364 19.0333 77.4364 18.6398C77.4364 13.3182 73.1113 8.99315 67.7898 8.99315C67.6057 8.99315 67.353 8.99315 67.3241 9.03286C65.8728 9.09785 64.5406 9.53108 63.3167 10.152L61.9954 8.66462C62.1434 8.62851 62.2806 8.63573 62.4394 8.56714C62.5983 8.50576 62.8004 8.42634 63.0098 8.3072C63.4792 8.13752 63.9341 7.95701 64.5406 7.71512C65.259 7.3577 65.5117 6.81255 65.6345 6.44431L66.241 4.62835C66.4179 4.09403 66.5948 3.55971 66.7826 3.00373C67.3891 3.01095 67.992 3.01095 68.5841 3.00373L69.808 6.336C70.0679 7.25301 70.678 7.63208 71.104 7.77288C71.7755 8.01838 72.447 8.30359 73.0355 8.54909C73.6601 8.85957 74.2955 8.85957 74.9309 8.53826C75.9743 8.00033 77.0176 7.46601 78.1224 6.90642C78.4148 7.19524 78.7108 7.48045 79.0033 7.76566L79.4293 8.18084C79.1224 8.7982 78.83 9.42638 78.5339 10.0473L77.8733 11.4409C77.6025 11.9933 77.5628 12.5709 77.8011 13.2713L78.635 15.2425C78.7758 15.6613 79.1044 16.2281 79.9816 16.5711L81.4907 17.0585C82.1298 17.2679 82.7652 17.4773 83.3825 17.6686C83.3717 18.2823 83.3717 18.8997 83.3825 19.499C82.9385 19.6542 82.4836 19.8167 82.0323 19.9792Z" fill="white"/>
<path d="M14.5854 11.8958H34.8461C35.6512 11.8958 36.3011 11.2424 36.3011 10.4409C36.3011 9.63581 35.6476 8.98596 34.8461 8.98596H14.5854C13.7803 8.98596 13.1304 9.63942 13.1304 10.4409C13.1268 11.2424 13.7803 11.8958 14.5854 11.8958Z" fill="white"/>
<path d="M14.5854 18.5134H44.0415C44.8465 18.5134 45.4964 17.8599 45.4964 17.0584C45.4964 16.2534 44.8429 15.6035 44.0415 15.6035H14.5854C13.7803 15.6035 13.1304 16.257 13.1304 17.0584C13.1268 17.8599 13.7803 18.5134 14.5854 18.5134Z" fill="white"/>
<path d="M14.5854 25.1275H55.6268C56.4319 25.1275 57.0817 24.4741 57.0817 23.6726C57.0817 22.8675 56.4282 22.2177 55.6268 22.2177H14.5854C13.7803 22.2177 13.1304 22.8711 13.1304 23.6726C13.1268 24.4777 13.7803 25.1275 14.5854 25.1275Z" fill="white"/>
<path d="M14.5854 31.7451H55.6268C56.4318 31.7451 57.0817 31.0916 57.0817 30.2901C57.0817 29.4887 56.4282 28.8352 55.6268 28.8352H14.5854C13.7803 28.8352 13.1304 29.4887 13.1304 30.2901C13.1304 31.0916 13.7803 31.7451 14.5854 31.7451Z" fill="white"/>
<path d="M57.0817 36.9076C57.0817 36.1025 56.4282 35.4526 55.6268 35.4526H14.5854C13.7803 35.4526 13.1304 36.1061 13.1304 36.9076C13.1304 37.709 13.7839 38.3625 14.5854 38.3625H55.6268C56.4282 38.3625 57.0817 37.7127 57.0817 36.9076Z" fill="white"/>
<path d="M25.3404 75.2631V75.9238C25.3404 76.227 25.5822 76.4689 25.8855 76.4689H26.6112C26.9144 76.4689 27.1563 76.227 27.1563 75.9238V75.1584C28.2611 74.8082 28.9723 73.8948 28.9723 72.7756C28.9723 71.2304 27.8387 70.5698 26.8494 70.1654C25.8422 69.7466 25.7628 69.5697 25.7628 69.3603C25.7628 69.0787 26.0083 68.9163 26.4379 68.9163C27.0516 68.9163 27.4343 69.1329 27.6184 69.2376C27.7556 69.3206 27.9253 69.3314 28.0733 69.2773C28.2213 69.2231 28.3405 69.104 28.3982 68.956L28.6835 68.1978C28.7773 67.9523 28.6798 67.6707 28.4488 67.5335C28.0805 67.3169 27.6762 67.1761 27.2249 67.1039V66.4866C27.2249 66.1833 26.983 65.9414 26.6798 65.9414H25.9685C25.6653 65.9414 25.4234 66.1833 25.4234 66.4866V67.2194C24.3692 67.5588 23.6869 68.4289 23.6869 69.4975C23.6869 70.9236 24.8205 71.5626 25.9252 71.9922C26.8097 72.3496 26.8819 72.624 26.8819 72.855C26.8819 73.2847 26.4379 73.4363 26.0588 73.4363C25.5931 73.4363 25.084 73.2847 24.7049 73.0319C24.5641 72.9381 24.3872 72.9164 24.232 72.967C24.0732 73.0211 23.9468 73.1439 23.889 73.3027L23.611 74.0717C23.528 74.3028 23.611 74.5591 23.8096 74.6999C24.1995 74.9779 24.7555 75.1801 25.3404 75.2631Z" fill="white"/>
</svg>
